solid OpenSCAD_Model
  facet normal 1 -0 0
    outer loop
      vertex 96 0 31.75
      vertex 96 20.5 31
      vertex 96 20.5 31.75
    endloop
  endfacet
  facet normal 1 0 0
    outer loop
      vertex 96 20.5 31
      vertex 96 0 31.75
      vertex 96 0 31
    endloop
  endfacet
  facet normal 1 -0 0
    outer loop
      vertex 96 24 31.75
      vertex 96 32.5 31
      vertex 96 32.5 31.75
    endloop
  endfacet
  facet normal 1 0 0
    outer loop
      vertex 96 32.5 31
      vertex 96 24 31.75
      vertex 96 24 31
    endloop
  endfacet
  facet normal 0 0 1
    outer loop
      vertex 73.5 32.5 31.75
      vertex 94.5 32.5 31.75
      vertex 94.5 36 31.75
    endloop
  endfacet
  facet normal 0 0 1
    outer loop
      vertex 94.5 32.5 31.75
      vertex 73.5 32.5 31.75
      vertex 94.5 24 31.75
    endloop
  endfacet
  facet normal 0 0 1
    outer loop
      vertex 73.5 32.5 31.75
      vertex 94.5 36 31.75
      vertex 73.5 36 31.75
    endloop
  endfacet
  facet normal -0 0 1
    outer loop
      vertex 94.5 32.5 31.75
      vertex 96 24 31.75
      vertex 96 32.5 31.75
    endloop
  endfacet
  facet normal 0 0 1
    outer loop
      vertex 96 24 31.75
      vertex 94.5 32.5 31.75
      vertex 94.5 24 31.75
    endloop
  endfacet
  facet normal -0 0 1
    outer loop
      vertex 94.5 20.5 31.75
      vertex 96 0 31.75
      vertex 96 20.5 31.75
    endloop
  endfacet
  facet normal 0 0 1
    outer loop
      vertex 73.5 24 31.75
      vertex 94.5 24 31.75
      vertex 73.5 32.5 31.75
    endloop
  endfacet
  facet normal 0 0 1
    outer loop
      vertex 94.5 24 31.75
      vertex 73.5 24 31.75
      vertex 94.5 20.5 31.75
    endloop
  endfacet
  facet normal 0 0 1
    outer loop
      vertex 73.5 20.5 31.75
      vertex 94.5 20.5 31.75
      vertex 73.5 24 31.75
    endloop
  endfacet
  facet normal 0 0 1
    outer loop
      vertex 94.5 20.5 31.75
      vertex 73.5 20.5 31.75
      vertex 96 0 31.75
    endloop
  endfacet
  facet normal -0 0 1
    outer loop
      vertex 72 20.5 31.75
      vertex 96 0 31.75
      vertex 73.5 20.5 31.75
    endloop
  endfacet
  facet normal 0 0 1
    outer loop
      vertex 24 24 31.75
      vertex 72 24 31.75
      vertex 24 32.5 31.75
    endloop
  endfacet
  facet normal 0 0 1
    outer loop
      vertex 72 24 31.75
      vertex 24 24 31.75
      vertex 72 20.5 31.75
    endloop
  endfacet
  facet normal 0 0 1
    outer loop
      vertex 24 20.5 31.75
      vertex 72 20.5 31.75
      vertex 24 24 31.75
    endloop
  endfacet
  facet normal 0 0 1
    outer loop
      vertex 72 20.5 31.75
      vertex 24 20.5 31.75
      vertex 96 0 31.75
    endloop
  endfacet
  facet normal 0 0 1
    outer loop
      vertex 0 0 31.75
      vertex 24 20.5 31.75
      vertex 22.5 20.5 31.75
    endloop
  endfacet
  facet normal 0 0 1
    outer loop
      vertex 1.5 24 31.75
      vertex 22.5 24 31.75
      vertex 1.5 32.5 31.75
    endloop
  endfacet
  facet normal 0 0 1
    outer loop
      vertex 22.5 24 31.75
      vertex 1.5 24 31.75
      vertex 22.5 20.5 31.75
    endloop
  endfacet
  facet normal 0 0 1
    outer loop
      vertex 1.5 20.5 31.75
      vertex 22.5 20.5 31.75
      vertex 1.5 24 31.75
    endloop
  endfacet
  facet normal 0 0 1
    outer loop
      vertex 0 0 31.75
      vertex 22.5 20.5 31.75
      vertex 1.5 20.5 31.75
    endloop
  endfacet
  facet normal 0 0 1
    outer loop
      vertex 0 0 31.75
      vertex 1.5 20.5 31.75
      vertex 0 20.5 31.75
    endloop
  endfacet
  facet normal 0 0 1
    outer loop
      vertex 24 20.5 31.75
      vertex 0 0 31.75
      vertex 96 0 31.75
    endloop
  endfacet
  facet normal -0 0 1
    outer loop
      vertex 0 32.5 31.75
      vertex 1.5 24 31.75
      vertex 1.5 32.5 31.75
    endloop
  endfacet
  facet normal 0 0 1
    outer loop
      vertex 1.5 24 31.75
      vertex 0 32.5 31.75
      vertex 0 24 31.75
    endloop
  endfacet
  facet normal -0 0 1
    outer loop
      vertex 1.5 36 31.75
      vertex 22.5 32.5 31.75
      vertex 22.5 36 31.75
    endloop
  endfacet
  facet normal 0 0 1
    outer loop
      vertex 1.5 32.5 31.75
      vertex 22.5 32.5 31.75
      vertex 1.5 36 31.75
    endloop
  endfacet
  facet normal 0 0 1
    outer loop
      vertex 22.5 32.5 31.75
      vertex 1.5 32.5 31.75
      vertex 22.5 24 31.75
    endloop
  endfacet
  facet normal -0 0 1
    outer loop
      vertex 22.5 32.5 31.75
      vertex 24 24 31.75
      vertex 24 32.5 31.75
    endloop
  endfacet
  facet normal 0 0 1
    outer loop
      vertex 24 24 31.75
      vertex 22.5 32.5 31.75
      vertex 22.5 24 31.75
    endloop
  endfacet
  facet normal -0 0 1
    outer loop
      vertex 24 36 31.75
      vertex 72 32.5 31.75
      vertex 72 36 31.75
    endloop
  endfacet
  facet normal 0 0 1
    outer loop
      vertex 24 32.5 31.75
      vertex 72 32.5 31.75
      vertex 24 36 31.75
    endloop
  endfacet
  facet normal 0 0 1
    outer loop
      vertex 72 32.5 31.75
      vertex 24 32.5 31.75
      vertex 72 24 31.75
    endloop
  endfacet
  facet normal -0 0 1
    outer loop
      vertex 72 32.5 31.75
      vertex 73.5 24 31.75
      vertex 73.5 32.5 31.75
    endloop
  endfacet
  facet normal 0 0 1
    outer loop
      vertex 73.5 24 31.75
      vertex 72 32.5 31.75
      vertex 72 24 31.75
    endloop
  endfacet
  facet normal 0 0 -1
    outer loop
      vertex 0 24 31
      vertex 1.5 32.5 31
      vertex 1.5 24 31
    endloop
  endfacet
  facet normal -0 0 -1
    outer loop
      vertex 1.5 32.5 31
      vertex 0 24 31
      vertex 0 32.5 31
    endloop
  endfacet
  facet normal 0 0 -1
    outer loop
      vertex 22.5 24 31
      vertex 24 32.5 31
      vertex 24 24 31
    endloop
  endfacet
  facet normal -0 0 -1
    outer loop
      vertex 24 32.5 31
      vertex 22.5 24 31
      vertex 22.5 32.5 31
    endloop
  endfacet
  facet normal 0 0 -1
    outer loop
      vertex 72 24 31
      vertex 73.5 32.5 31
      vertex 73.5 24 31
    endloop
  endfacet
  facet normal -0 0 -1
    outer loop
      vertex 73.5 32.5 31
      vertex 72 24 31
      vertex 72 32.5 31
    endloop
  endfacet
  facet normal 0 0 -1
    outer loop
      vertex 96 0 31
      vertex 94.5 20.5 31
      vertex 96 20.5 31
    endloop
  endfacet
  facet normal 0 0 -1
    outer loop
      vertex 73.5 24 31
      vertex 94.5 24 31
      vertex 94.5 20.5 31
    endloop
  endfacet
  facet normal 0 0 -1
    outer loop
      vertex 94.5 24 31
      vertex 73.5 24 31
      vertex 94.5 32.5 31
    endloop
  endfacet
  facet normal 0 0 -1
    outer loop
      vertex 73.5 24 31
      vertex 94.5 20.5 31
      vertex 73.5 20.5 31
    endloop
  endfacet
  facet normal 0 0 -1
    outer loop
      vertex 96 0 31
      vertex 73.5 20.5 31
      vertex 94.5 20.5 31
    endloop
  endfacet
  facet normal 0 0 -1
    outer loop
      vertex 96 0 31
      vertex 72 20.5 31
      vertex 73.5 20.5 31
    endloop
  endfacet
  facet normal 0 0 -1
    outer loop
      vertex 24 24 31
      vertex 72 24 31
      vertex 72 20.5 31
    endloop
  endfacet
  facet normal 0 0 -1
    outer loop
      vertex 72 24 31
      vertex 24 24 31
      vertex 72 32.5 31
    endloop
  endfacet
  facet normal 0 0 -1
    outer loop
      vertex 24 24 31
      vertex 72 20.5 31
      vertex 24 20.5 31
    endloop
  endfacet
  facet normal 0 0 -1
    outer loop
      vertex 96 0 31
      vertex 24 20.5 31
      vertex 72 20.5 31
    endloop
  endfacet
  facet normal 0 0 -1
    outer loop
      vertex 0 0 31
      vertex 24 20.5 31
      vertex 96 0 31
    endloop
  endfacet
  facet normal 0 0 -1
    outer loop
      vertex 1.5 24 31
      vertex 22.5 24 31
      vertex 22.5 20.5 31
    endloop
  endfacet
  facet normal 0 0 -1
    outer loop
      vertex 22.5 24 31
      vertex 1.5 24 31
      vertex 22.5 32.5 31
    endloop
  endfacet
  facet normal 0 0 -1
    outer loop
      vertex 1.5 24 31
      vertex 22.5 20.5 31
      vertex 1.5 20.5 31
    endloop
  endfacet
  facet normal -0 0 -1
    outer loop
      vertex 24 20.5 31
      vertex 0 0 31
      vertex 22.5 20.5 31
    endloop
  endfacet
  facet normal -0 0 -1
    outer loop
      vertex 22.5 20.5 31
      vertex 0 0 31
      vertex 1.5 20.5 31
    endloop
  endfacet
  facet normal -0 0 -1
    outer loop
      vertex 1.5 20.5 31
      vertex 0 0 31
      vertex 0 20.5 31
    endloop
  endfacet
  facet normal 0 0 -1
    outer loop
      vertex 94.5 24 31
      vertex 96 32.5 31
      vertex 96 24 31
    endloop
  endfacet
  facet normal -0 0 -1
    outer loop
      vertex 96 32.5 31
      vertex 94.5 24 31
      vertex 94.5 32.5 31
    endloop
  endfacet
  facet normal 0 0 -1
    outer loop
      vertex 73.5 32.5 31
      vertex 94.5 32.5 31
      vertex 73.5 24 31
    endloop
  endfacet
  facet normal 0 0 -1
    outer loop
      vertex 94.5 32.5 31
      vertex 73.5 32.5 31
      vertex 94.5 36 31
    endloop
  endfacet
  facet normal -0 0 -1
    outer loop
      vertex 94.5 36 31
      vertex 73.5 32.5 31
      vertex 73.5 36 31
    endloop
  endfacet
  facet normal 0 0 -1
    outer loop
      vertex 24 32.5 31
      vertex 72 32.5 31
      vertex 24 24 31
    endloop
  endfacet
  facet normal 0 0 -1
    outer loop
      vertex 72 32.5 31
      vertex 24 32.5 31
      vertex 72 36 31
    endloop
  endfacet
  facet normal -0 0 -1
    outer loop
      vertex 72 36 31
      vertex 24 32.5 31
      vertex 24 36 31
    endloop
  endfacet
  facet normal 0 0 -1
    outer loop
      vertex 1.5 32.5 31
      vertex 22.5 32.5 31
      vertex 1.5 24 31
    endloop
  endfacet
  facet normal 0 0 -1
    outer loop
      vertex 22.5 32.5 31
      vertex 1.5 32.5 31
      vertex 22.5 36 31
    endloop
  endfacet
  facet normal -0 0 -1
    outer loop
      vertex 22.5 36 31
      vertex 1.5 32.5 31
      vertex 1.5 36 31
    endloop
  endfacet
  facet normal -1 0 0
    outer loop
      vertex 0 0 31
      vertex 0 20.5 31.75
      vertex 0 20.5 31
    endloop
  endfacet
  facet normal -1 -0 0
    outer loop
      vertex 0 20.5 31.75
      vertex 0 0 31
      vertex 0 0 31.75
    endloop
  endfacet
  facet normal -1 0 0
    outer loop
      vertex 0 24 31
      vertex 0 32.5 31.75
      vertex 0 32.5 31
    endloop
  endfacet
  facet normal -1 -0 0
    outer loop
      vertex 0 32.5 31.75
      vertex 0 24 31
      vertex 0 24 31.75
    endloop
  endfacet
  facet normal 0 1 -0
    outer loop
      vertex 22.5 36 31
      vertex 1.5 36 31.75
      vertex 22.5 36 31.75
    endloop
  endfacet
  facet normal 0 1 0
    outer loop
      vertex 1.5 36 31.75
      vertex 22.5 36 31
      vertex 1.5 36 31
    endloop
  endfacet
  facet normal 0 1 -0
    outer loop
      vertex 72 36 31
      vertex 24 36 31.75
      vertex 72 36 31.75
    endloop
  endfacet
  facet normal 0 1 0
    outer loop
      vertex 24 36 31.75
      vertex 72 36 31
      vertex 24 36 31
    endloop
  endfacet
  facet normal 0 1 -0
    outer loop
      vertex 94.5 36 31
      vertex 73.5 36 31.75
      vertex 94.5 36 31.75
    endloop
  endfacet
  facet normal 0 1 0
    outer loop
      vertex 73.5 36 31.75
      vertex 94.5 36 31
      vertex 73.5 36 31
    endloop
  endfacet
  facet normal 0 -1 0
    outer loop
      vertex 0 0 31
      vertex 96 0 31.75
      vertex 0 0 31.75
    endloop
  endfacet
  facet normal 0 -1 -0
    outer loop
      vertex 96 0 31.75
      vertex 0 0 31
      vertex 96 0 31
    endloop
  endfacet
  facet normal -1 0 0
    outer loop
      vertex 1.5 32.5 31
      vertex 1.5 36 31.75
      vertex 1.5 36 31
    endloop
  endfacet
  facet normal -1 -0 0
    outer loop
      vertex 1.5 36 31.75
      vertex 1.5 32.5 31
      vertex 1.5 32.5 31.75
    endloop
  endfacet
  facet normal 0 1 -0
    outer loop
      vertex 1.5 32.5 31
      vertex 0 32.5 31.75
      vertex 1.5 32.5 31.75
    endloop
  endfacet
  facet normal 0 1 0
    outer loop
      vertex 0 32.5 31.75
      vertex 1.5 32.5 31
      vertex 0 32.5 31
    endloop
  endfacet
  facet normal -1 0 0
    outer loop
      vertex 24 32.5 31
      vertex 24 36 31.75
      vertex 24 36 31
    endloop
  endfacet
  facet normal -1 -0 0
    outer loop
      vertex 24 36 31.75
      vertex 24 32.5 31
      vertex 24 32.5 31.75
    endloop
  endfacet
  facet normal 1 -0 0
    outer loop
      vertex 22.5 32.5 31.75
      vertex 22.5 36 31
      vertex 22.5 36 31.75
    endloop
  endfacet
  facet normal 1 0 0
    outer loop
      vertex 22.5 36 31
      vertex 22.5 32.5 31.75
      vertex 22.5 32.5 31
    endloop
  endfacet
  facet normal 0 1 -0
    outer loop
      vertex 24 32.5 31
      vertex 22.5 32.5 31.75
      vertex 24 32.5 31.75
    endloop
  endfacet
  facet normal 0 1 0
    outer loop
      vertex 22.5 32.5 31.75
      vertex 24 32.5 31
      vertex 22.5 32.5 31
    endloop
  endfacet
  facet normal -1 0 0
    outer loop
      vertex 73.5 32.5 31
      vertex 73.5 36 31.75
      vertex 73.5 36 31
    endloop
  endfacet
  facet normal -1 -0 0
    outer loop
      vertex 73.5 36 31.75
      vertex 73.5 32.5 31
      vertex 73.5 32.5 31.75
    endloop
  endfacet
  facet normal 1 -0 0
    outer loop
      vertex 72 32.5 31.75
      vertex 72 36 31
      vertex 72 36 31.75
    endloop
  endfacet
  facet normal 1 0 0
    outer loop
      vertex 72 36 31
      vertex 72 32.5 31.75
      vertex 72 32.5 31
    endloop
  endfacet
  facet normal 0 1 -0
    outer loop
      vertex 73.5 32.5 31
      vertex 72 32.5 31.75
      vertex 73.5 32.5 31.75
    endloop
  endfacet
  facet normal 0 1 0
    outer loop
      vertex 72 32.5 31.75
      vertex 73.5 32.5 31
      vertex 72 32.5 31
    endloop
  endfacet
  facet normal 1 -0 0
    outer loop
      vertex 94.5 32.5 31.75
      vertex 94.5 36 31
      vertex 94.5 36 31.75
    endloop
  endfacet
  facet normal 1 0 0
    outer loop
      vertex 94.5 36 31
      vertex 94.5 32.5 31.75
      vertex 94.5 32.5 31
    endloop
  endfacet
  facet normal 0 1 -0
    outer loop
      vertex 96 32.5 31
      vertex 94.5 32.5 31.75
      vertex 96 32.5 31.75
    endloop
  endfacet
  facet normal 0 1 0
    outer loop
      vertex 94.5 32.5 31.75
      vertex 96 32.5 31
      vertex 94.5 32.5 31
    endloop
  endfacet
  facet normal -1 0 0
    outer loop
      vertex 1.5 20.5 31
      vertex 1.5 24 31.75
      vertex 1.5 24 31
    endloop
  endfacet
  facet normal -1 -0 0
    outer loop
      vertex 1.5 24 31.75
      vertex 1.5 20.5 31
      vertex 1.5 20.5 31.75
    endloop
  endfacet
  facet normal 0 -1 0
    outer loop
      vertex 0 24 31
      vertex 1.5 24 31.75
      vertex 0 24 31.75
    endloop
  endfacet
  facet normal 0 -1 -0
    outer loop
      vertex 1.5 24 31.75
      vertex 0 24 31
      vertex 1.5 24 31
    endloop
  endfacet
  facet normal 0 1 -0
    outer loop
      vertex 1.5 20.5 31
      vertex 0 20.5 31.75
      vertex 1.5 20.5 31.75
    endloop
  endfacet
  facet normal 0 1 0
    outer loop
      vertex 0 20.5 31.75
      vertex 1.5 20.5 31
      vertex 0 20.5 31
    endloop
  endfacet
  facet normal -1 0 0
    outer loop
      vertex 24 20.5 31
      vertex 24 24 31.75
      vertex 24 24 31
    endloop
  endfacet
  facet normal -1 -0 0
    outer loop
      vertex 24 24 31.75
      vertex 24 20.5 31
      vertex 24 20.5 31.75
    endloop
  endfacet
  facet normal 1 -0 0
    outer loop
      vertex 22.5 20.5 31.75
      vertex 22.5 24 31
      vertex 22.5 24 31.75
    endloop
  endfacet
  facet normal 1 0 0
    outer loop
      vertex 22.5 24 31
      vertex 22.5 20.5 31.75
      vertex 22.5 20.5 31
    endloop
  endfacet
  facet normal 0 -1 0
    outer loop
      vertex 22.5 24 31
      vertex 24 24 31.75
      vertex 22.5 24 31.75
    endloop
  endfacet
  facet normal 0 -1 -0
    outer loop
      vertex 24 24 31.75
      vertex 22.5 24 31
      vertex 24 24 31
    endloop
  endfacet
  facet normal 0 1 -0
    outer loop
      vertex 24 20.5 31
      vertex 22.5 20.5 31.75
      vertex 24 20.5 31.75
    endloop
  endfacet
  facet normal 0 1 0
    outer loop
      vertex 22.5 20.5 31.75
      vertex 24 20.5 31
      vertex 22.5 20.5 31
    endloop
  endfacet
  facet normal -1 0 0
    outer loop
      vertex 73.5 20.5 31
      vertex 73.5 24 31.75
      vertex 73.5 24 31
    endloop
  endfacet
  facet normal -1 -0 0
    outer loop
      vertex 73.5 24 31.75
      vertex 73.5 20.5 31
      vertex 73.5 20.5 31.75
    endloop
  endfacet
  facet normal 1 -0 0
    outer loop
      vertex 72 20.5 31.75
      vertex 72 24 31
      vertex 72 24 31.75
    endloop
  endfacet
  facet normal 1 0 0
    outer loop
      vertex 72 24 31
      vertex 72 20.5 31.75
      vertex 72 20.5 31
    endloop
  endfacet
  facet normal 0 -1 0
    outer loop
      vertex 72 24 31
      vertex 73.5 24 31.75
      vertex 72 24 31.75
    endloop
  endfacet
  facet normal 0 -1 -0
    outer loop
      vertex 73.5 24 31.75
      vertex 72 24 31
      vertex 73.5 24 31
    endloop
  endfacet
  facet normal 0 1 -0
    outer loop
      vertex 73.5 20.5 31
      vertex 72 20.5 31.75
      vertex 73.5 20.5 31.75
    endloop
  endfacet
  facet normal 0 1 0
    outer loop
      vertex 72 20.5 31.75
      vertex 73.5 20.5 31
      vertex 72 20.5 31
    endloop
  endfacet
  facet normal 1 -0 0
    outer loop
      vertex 94.5 20.5 31.75
      vertex 94.5 24 31
      vertex 94.5 24 31.75
    endloop
  endfacet
  facet normal 1 0 0
    outer loop
      vertex 94.5 24 31
      vertex 94.5 20.5 31.75
      vertex 94.5 20.5 31
    endloop
  endfacet
  facet normal 0 -1 0
    outer loop
      vertex 94.5 24 31
      vertex 96 24 31.75
      vertex 94.5 24 31.75
    endloop
  endfacet
  facet normal 0 -1 -0
    outer loop
      vertex 96 24 31.75
      vertex 94.5 24 31
      vertex 96 24 31
    endloop
  endfacet
  facet normal 0 1 -0
    outer loop
      vertex 96 20.5 31
      vertex 94.5 20.5 31.75
      vertex 96 20.5 31.75
    endloop
  endfacet
  facet normal 0 1 0
    outer loop
      vertex 94.5 20.5 31.75
      vertex 96 20.5 31
      vertex 94.5 20.5 31
    endloop
  endfacet
endsolid OpenSCAD_Model
