solid OpenSCAD_Model
  facet normal 1 0 0
    outer loop
      vertex 1.5 36 3.5
      vertex 1.5 34.5 1.75
      vertex 1.5 36 1.75
    endloop
  endfacet
  facet normal 1 0 0
    outer loop
      vertex 1.5 34.5 1.75
      vertex 1.5 1.5 1.75
      vertex 1.5 34.5 0
    endloop
  endfacet
  facet normal 1 0 0
    outer loop
      vertex 1.5 36 3.5
      vertex 1.5 1.5 1.75
      vertex 1.5 34.5 1.75
    endloop
  endfacet
  facet normal 1 -0 0
    outer loop
      vertex 1.5 0 3.5
      vertex 1.5 1.5 1.75
      vertex 1.5 36 3.5
    endloop
  endfacet
  facet normal 1 0 0
    outer loop
      vertex 1.5 1.5 1.75
      vertex 1.5 0 3.5
      vertex 1.5 0 1.75
    endloop
  endfacet
  facet normal 1 0 0
    outer loop
      vertex 1.5 34.5 0
      vertex 1.5 1.5 1.75
      vertex 1.5 1.5 0
    endloop
  endfacet
  facet normal -0 0 1
    outer loop
      vertex 0 36 3.5
      vertex 1.5 0 3.5
      vertex 1.5 36 3.5
    endloop
  endfacet
  facet normal 0 0 1
    outer loop
      vertex 1.5 0 3.5
      vertex 0 36 3.5
      vertex 0 0 3.5
    endloop
  endfacet
  facet normal 0 0 -1
    outer loop
      vertex 0 1.5 0
      vertex 1.5 34.5 0
      vertex 1.5 1.5 0
    endloop
  endfacet
  facet normal -0 0 -1
    outer loop
      vertex 1.5 34.5 0
      vertex 0 1.5 0
      vertex 0 34.5 0
    endloop
  endfacet
  facet normal -1 0 0
    outer loop
      vertex 0 34.5 0
      vertex 0 1.5 0
      vertex 0 34.5 1.75
    endloop
  endfacet
  facet normal -1 0 0
    outer loop
      vertex 0 34.5 1.75
      vertex 0 36 3.5
      vertex 0 36 1.75
    endloop
  endfacet
  facet normal -1 0 0
    outer loop
      vertex 0 1.5 1.75
      vertex 0 34.5 1.75
      vertex 0 1.5 0
    endloop
  endfacet
  facet normal -1 0 0
    outer loop
      vertex 0 34.5 1.75
      vertex 0 1.5 1.75
      vertex 0 36 3.5
    endloop
  endfacet
  facet normal -1 0 0
    outer loop
      vertex 0 0 3.5
      vertex 0 1.5 1.75
      vertex 0 0 1.75
    endloop
  endfacet
  facet normal -1 0 0
    outer loop
      vertex 0 1.5 1.75
      vertex 0 0 3.5
      vertex 0 36 3.5
    endloop
  endfacet
  facet normal 0 1 -0
    outer loop
      vertex 1.5 36 1.75
      vertex 0 36 3.5
      vertex 1.5 36 3.5
    endloop
  endfacet
  facet normal 0 1 0
    outer loop
      vertex 0 36 3.5
      vertex 1.5 36 1.75
      vertex 0 36 1.75
    endloop
  endfacet
  facet normal 0 -1 0
    outer loop
      vertex 0 0 1.75
      vertex 1.5 0 3.5
      vertex 0 0 3.5
    endloop
  endfacet
  facet normal 0 -1 -0
    outer loop
      vertex 1.5 0 3.5
      vertex 0 0 1.75
      vertex 1.5 0 1.75
    endloop
  endfacet
  facet normal 0 0 -1
    outer loop
      vertex 0 34.5 1.75
      vertex 1.5 36 1.75
      vertex 1.5 34.5 1.75
    endloop
  endfacet
  facet normal -0 0 -1
    outer loop
      vertex 1.5 36 1.75
      vertex 0 34.5 1.75
      vertex 0 36 1.75
    endloop
  endfacet
  facet normal 0 1 -0
    outer loop
      vertex 1.5 34.5 0
      vertex 0 34.5 1.75
      vertex 1.5 34.5 1.75
    endloop
  endfacet
  facet normal 0 1 0
    outer loop
      vertex 0 34.5 1.75
      vertex 1.5 34.5 0
      vertex 0 34.5 0
    endloop
  endfacet
  facet normal 0 0 -1
    outer loop
      vertex 0 0 1.75
      vertex 1.5 1.5 1.75
      vertex 1.5 0 1.75
    endloop
  endfacet
  facet normal -0 0 -1
    outer loop
      vertex 1.5 1.5 1.75
      vertex 0 0 1.75
      vertex 0 1.5 1.75
    endloop
  endfacet
  facet normal 0 -1 0
    outer loop
      vertex 0 1.5 0
      vertex 1.5 1.5 1.75
      vertex 0 1.5 1.75
    endloop
  endfacet
  facet normal 0 -1 -0
    outer loop
      vertex 1.5 1.5 1.75
      vertex 0 1.5 0
      vertex 1.5 1.5 0
    endloop
  endfacet
endsolid OpenSCAD_Model
