solid OpenSCAD_Model
  facet normal 1 -0 0
    outer loop
      vertex 51 0 1.5
      vertex 51 1.75 0
      vertex 51 1.75 1.5
    endloop
  endfacet
  facet normal 1 0 0
    outer loop
      vertex 51 1.75 0
      vertex 51 0 1.5
      vertex 51 0 0
    endloop
  endfacet
  facet normal 0 0 1
    outer loop
      vertex 49.5 3.5 1.5
      vertex 1.5 3.5 1.5
      vertex 49.5 1.75 1.5
    endloop
  endfacet
  facet normal -0 0 1
    outer loop
      vertex 49.5 1.75 1.5
      vertex 51 0 1.5
      vertex 51 1.75 1.5
    endloop
  endfacet
  facet normal 0 0 1
    outer loop
      vertex 1.5 1.75 1.5
      vertex 49.5 1.75 1.5
      vertex 1.5 3.5 1.5
    endloop
  endfacet
  facet normal 0 0 1
    outer loop
      vertex 49.5 1.75 1.5
      vertex 1.5 1.75 1.5
      vertex 51 0 1.5
    endloop
  endfacet
  facet normal 0 0 1
    outer loop
      vertex 0 0 1.5
      vertex 1.5 1.75 1.5
      vertex 0 1.75 1.5
    endloop
  endfacet
  facet normal 0 0 1
    outer loop
      vertex 1.5 1.75 1.5
      vertex 0 0 1.5
      vertex 51 0 1.5
    endloop
  endfacet
  facet normal 0 0 -1
    outer loop
      vertex 51 0 0
      vertex 49.5 1.75 0
      vertex 51 1.75 0
    endloop
  endfacet
  facet normal 0 0 -1
    outer loop
      vertex 49.5 1.75 0
      vertex 1.5 1.75 0
      vertex 49.5 3.5 0
    endloop
  endfacet
  facet normal 0 0 -1
    outer loop
      vertex 51 0 0
      vertex 1.5 1.75 0
      vertex 49.5 1.75 0
    endloop
  endfacet
  facet normal 0 0 -1
    outer loop
      vertex 0 0 0
      vertex 1.5 1.75 0
      vertex 51 0 0
    endloop
  endfacet
  facet normal -0 0 -1
    outer loop
      vertex 1.5 1.75 0
      vertex 0 0 0
      vertex 0 1.75 0
    endloop
  endfacet
  facet normal -0 0 -1
    outer loop
      vertex 49.5 3.5 0
      vertex 1.5 1.75 0
      vertex 1.5 3.5 0
    endloop
  endfacet
  facet normal -1 0 0
    outer loop
      vertex 0 0 0
      vertex 0 1.75 1.5
      vertex 0 1.75 0
    endloop
  endfacet
  facet normal -1 -0 0
    outer loop
      vertex 0 1.75 1.5
      vertex 0 0 0
      vertex 0 0 1.5
    endloop
  endfacet
  facet normal 0 1 -0
    outer loop
      vertex 49.5 3.5 0
      vertex 1.5 3.5 1.5
      vertex 49.5 3.5 1.5
    endloop
  endfacet
  facet normal 0 1 0
    outer loop
      vertex 1.5 3.5 1.5
      vertex 49.5 3.5 0
      vertex 1.5 3.5 0
    endloop
  endfacet
  facet normal 0 -1 0
    outer loop
      vertex 0 0 0
      vertex 51 0 1.5
      vertex 0 0 1.5
    endloop
  endfacet
  facet normal 0 -1 -0
    outer loop
      vertex 51 0 1.5
      vertex 0 0 0
      vertex 51 0 0
    endloop
  endfacet
  facet normal -1 0 0
    outer loop
      vertex 1.5 1.75 0
      vertex 1.5 3.5 1.5
      vertex 1.5 3.5 0
    endloop
  endfacet
  facet normal -1 -0 0
    outer loop
      vertex 1.5 3.5 1.5
      vertex 1.5 1.75 0
      vertex 1.5 1.75 1.5
    endloop
  endfacet
  facet normal 0 1 -0
    outer loop
      vertex 1.5 1.75 0
      vertex 0 1.75 1.5
      vertex 1.5 1.75 1.5
    endloop
  endfacet
  facet normal 0 1 0
    outer loop
      vertex 0 1.75 1.5
      vertex 1.5 1.75 0
      vertex 0 1.75 0
    endloop
  endfacet
  facet normal 1 -0 0
    outer loop
      vertex 49.5 1.75 1.5
      vertex 49.5 3.5 0
      vertex 49.5 3.5 1.5
    endloop
  endfacet
  facet normal 1 0 0
    outer loop
      vertex 49.5 3.5 0
      vertex 49.5 1.75 1.5
      vertex 49.5 1.75 0
    endloop
  endfacet
  facet normal 0 1 -0
    outer loop
      vertex 51 1.75 0
      vertex 49.5 1.75 1.5
      vertex 51 1.75 1.5
    endloop
  endfacet
  facet normal 0 1 0
    outer loop
      vertex 49.5 1.75 1.5
      vertex 51 1.75 0
      vertex 49.5 1.75 0
    endloop
  endfacet
endsolid OpenSCAD_Model
