solid OpenSCAD_Model
  facet normal 1 -0 0
    outer loop
      vertex 73.5 24 52
      vertex 73.5 32.5 51.5
      vertex 73.5 32.5 52
    endloop
  endfacet
  facet normal 1 0 0
    outer loop
      vertex 73.5 32.5 51.5
      vertex 73.5 24 52
      vertex 73.5 24 51.5
    endloop
  endfacet
  facet normal -0 0 1
    outer loop
      vertex 22.5 32.5 52
      vertex 24 24 52
      vertex 24 32.5 52
    endloop
  endfacet
  facet normal 0 0 1
    outer loop
      vertex 24 24 52
      vertex 22.5 32.5 52
      vertex 22.5 24 52
    endloop
  endfacet
  facet normal 0 0 1
    outer loop
      vertex 24 32.5 52
      vertex 72 32.5 52
      vertex 72 36 52
    endloop
  endfacet
  facet normal 0 0 1
    outer loop
      vertex 72 32.5 52
      vertex 24 32.5 52
      vertex 72 24 52
    endloop
  endfacet
  facet normal 0 0 1
    outer loop
      vertex 24 32.5 52
      vertex 72 36 52
      vertex 24 36 52
    endloop
  endfacet
  facet normal 0 0 1
    outer loop
      vertex 24 24 52
      vertex 72 24 52
      vertex 24 32.5 52
    endloop
  endfacet
  facet normal 0 0 1
    outer loop
      vertex 72 24 52
      vertex 24 24 52
      vertex 72 20.5 52
    endloop
  endfacet
  facet normal 0 0 1
    outer loop
      vertex 72 20.5 52
      vertex 24 24 52
      vertex 24 20.5 52
    endloop
  endfacet
  facet normal -0 0 1
    outer loop
      vertex 72 32.5 52
      vertex 73.5 24 52
      vertex 73.5 32.5 52
    endloop
  endfacet
  facet normal 0 0 1
    outer loop
      vertex 73.5 24 52
      vertex 72 32.5 52
      vertex 72 24 52
    endloop
  endfacet
  facet normal 0 0 -1
    outer loop
      vertex 22.5 24 51.5
      vertex 24 32.5 51.5
      vertex 24 24 51.5
    endloop
  endfacet
  facet normal -0 0 -1
    outer loop
      vertex 24 32.5 51.5
      vertex 22.5 24 51.5
      vertex 22.5 32.5 51.5
    endloop
  endfacet
  facet normal 0 0 -1
    outer loop
      vertex 24 24 51.5
      vertex 72 24 51.5
      vertex 72 20.5 51.5
    endloop
  endfacet
  facet normal 0 0 -1
    outer loop
      vertex 72 24 51.5
      vertex 24 24 51.5
      vertex 72 32.5 51.5
    endloop
  endfacet
  facet normal 0 0 -1
    outer loop
      vertex 24 24 51.5
      vertex 72 20.5 51.5
      vertex 24 20.5 51.5
    endloop
  endfacet
  facet normal 0 0 -1
    outer loop
      vertex 24 32.5 51.5
      vertex 72 32.5 51.5
      vertex 24 24 51.5
    endloop
  endfacet
  facet normal 0 0 -1
    outer loop
      vertex 72 32.5 51.5
      vertex 24 32.5 51.5
      vertex 72 36 51.5
    endloop
  endfacet
  facet normal -0 0 -1
    outer loop
      vertex 72 36 51.5
      vertex 24 32.5 51.5
      vertex 24 36 51.5
    endloop
  endfacet
  facet normal 0 0 -1
    outer loop
      vertex 72 24 51.5
      vertex 73.5 32.5 51.5
      vertex 73.5 24 51.5
    endloop
  endfacet
  facet normal -0 0 -1
    outer loop
      vertex 73.5 32.5 51.5
      vertex 72 24 51.5
      vertex 72 32.5 51.5
    endloop
  endfacet
  facet normal -1 0 0
    outer loop
      vertex 22.5 24 51.5
      vertex 22.5 32.5 52
      vertex 22.5 32.5 51.5
    endloop
  endfacet
  facet normal -1 -0 0
    outer loop
      vertex 22.5 32.5 52
      vertex 22.5 24 51.5
      vertex 22.5 24 52
    endloop
  endfacet
  facet normal 0 1 -0
    outer loop
      vertex 72 36 51.5
      vertex 24 36 52
      vertex 72 36 52
    endloop
  endfacet
  facet normal 0 1 0
    outer loop
      vertex 24 36 52
      vertex 72 36 51.5
      vertex 24 36 51.5
    endloop
  endfacet
  facet normal 0 -1 0
    outer loop
      vertex 24 20.5 51.5
      vertex 72 20.5 52
      vertex 24 20.5 52
    endloop
  endfacet
  facet normal 0 -1 -0
    outer loop
      vertex 72 20.5 52
      vertex 24 20.5 51.5
      vertex 72 20.5 51.5
    endloop
  endfacet
  facet normal -1 0 0
    outer loop
      vertex 24 20.5 51.5
      vertex 24 24 52
      vertex 24 24 51.5
    endloop
  endfacet
  facet normal -1 -0 0
    outer loop
      vertex 24 24 52
      vertex 24 20.5 51.5
      vertex 24 20.5 52
    endloop
  endfacet
  facet normal 0 -1 0
    outer loop
      vertex 22.5 24 51.5
      vertex 24 24 52
      vertex 22.5 24 52
    endloop
  endfacet
  facet normal 0 -1 -0
    outer loop
      vertex 24 24 52
      vertex 22.5 24 51.5
      vertex 24 24 51.5
    endloop
  endfacet
  facet normal -1 0 0
    outer loop
      vertex 24 32.5 51.5
      vertex 24 36 52
      vertex 24 36 51.5
    endloop
  endfacet
  facet normal -1 -0 0
    outer loop
      vertex 24 36 52
      vertex 24 32.5 51.5
      vertex 24 32.5 52
    endloop
  endfacet
  facet normal 0 1 -0
    outer loop
      vertex 24 32.5 51.5
      vertex 22.5 32.5 52
      vertex 24 32.5 52
    endloop
  endfacet
  facet normal 0 1 0
    outer loop
      vertex 22.5 32.5 52
      vertex 24 32.5 51.5
      vertex 22.5 32.5 51.5
    endloop
  endfacet
  facet normal 1 -0 0
    outer loop
      vertex 72 20.5 52
      vertex 72 24 51.5
      vertex 72 24 52
    endloop
  endfacet
  facet normal 1 0 0
    outer loop
      vertex 72 24 51.5
      vertex 72 20.5 52
      vertex 72 20.5 51.5
    endloop
  endfacet
  facet normal 0 -1 0
    outer loop
      vertex 72 24 51.5
      vertex 73.5 24 52
      vertex 72 24 52
    endloop
  endfacet
  facet normal 0 -1 -0
    outer loop
      vertex 73.5 24 52
      vertex 72 24 51.5
      vertex 73.5 24 51.5
    endloop
  endfacet
  facet normal 1 -0 0
    outer loop
      vertex 72 32.5 52
      vertex 72 36 51.5
      vertex 72 36 52
    endloop
  endfacet
  facet normal 1 0 0
    outer loop
      vertex 72 36 51.5
      vertex 72 32.5 52
      vertex 72 32.5 51.5
    endloop
  endfacet
  facet normal 0 1 -0
    outer loop
      vertex 73.5 32.5 51.5
      vertex 72 32.5 52
      vertex 73.5 32.5 52
    endloop
  endfacet
  facet normal 0 1 0
    outer loop
      vertex 72 32.5 52
      vertex 73.5 32.5 51.5
      vertex 72 32.5 51.5
    endloop
  endfacet
endsolid OpenSCAD_Model
