solid OpenSCAD_Model
  facet normal 1 -0 0
    outer loop
      vertex 1.5 0 22
      vertex 1.5 3.5 0
      vertex 1.5 3.5 22
    endloop
  endfacet
  facet normal 1 0 0
    outer loop
      vertex 1.5 3.5 0
      vertex 1.5 0 22
      vertex 1.5 0 0
    endloop
  endfacet
  facet normal 1 0 0
    outer loop
      vertex 1.5 1.75 50
      vertex 1.5 3.5 70.5
      vertex 1.5 1.75 51.5
    endloop
  endfacet
  facet normal 1 -0 0
    outer loop
      vertex 1.5 0 70.5
      vertex 1.5 1.75 51.5
      vertex 1.5 3.5 70.5
    endloop
  endfacet
  facet normal 1 0 0
    outer loop
      vertex 1.5 1.75 51.5
      vertex 1.5 0 70.5
      vertex 1.5 0 51.5
    endloop
  endfacet
  facet normal 1 0 0
    outer loop
      vertex 1.5 3.5 70.5
      vertex 1.5 1.75 50
      vertex 1.5 3.5 22.25
    endloop
  endfacet
  facet normal 1 0 0
    outer loop
      vertex 1.5 0 22.25
      vertex 1.5 1.75 50
      vertex 1.5 0 50
    endloop
  endfacet
  facet normal 1 0 0
    outer loop
      vertex 1.5 1.75 50
      vertex 1.5 0 22.25
      vertex 1.5 3.5 22.25
    endloop
  endfacet
  facet normal 0 0 -1
    outer loop
      vertex 0 0 0
      vertex 1.5 3.5 0
      vertex 1.5 0 0
    endloop
  endfacet
  facet normal -0 0 -1
    outer loop
      vertex 1.5 3.5 0
      vertex 0 0 0
      vertex 0 3.5 0
    endloop
  endfacet
  facet normal -1 0 0
    outer loop
      vertex 0 0 0
      vertex 0 3.5 2.5
      vertex 0 3.5 0
    endloop
  endfacet
  facet normal -1 -0 0
    outer loop
      vertex 0 3.5 2.5
      vertex 0 0 0
      vertex 0 0 2.5
    endloop
  endfacet
  facet normal -1 0 0
    outer loop
      vertex 0 3.5 31
      vertex 0 1.75 50
      vertex 0 3.5 70.5
    endloop
  endfacet
  facet normal -1 0 0
    outer loop
      vertex 0 0 31
      vertex 0 1.75 50
      vertex 0 3.5 31
    endloop
  endfacet
  facet normal -1 -0 0
    outer loop
      vertex 0 1.75 50
      vertex 0 0 31
      vertex 0 0 50
    endloop
  endfacet
  facet normal -1 0 0
    outer loop
      vertex 0 1.75 51.5
      vertex 0 3.5 70.5
      vertex 0 1.75 50
    endloop
  endfacet
  facet normal -1 0 0
    outer loop
      vertex 0 0 70.5
      vertex 0 1.75 51.5
      vertex 0 0 51.5
    endloop
  endfacet
  facet normal -1 0 0
    outer loop
      vertex 0 1.75 51.5
      vertex 0 0 70.5
      vertex 0 3.5 70.5
    endloop
  endfacet
  facet normal -1 0 0
    outer loop
      vertex 0 0 6
      vertex 0 3.5 27.5
      vertex 0 3.5 6
    endloop
  endfacet
  facet normal -1 -0 0
    outer loop
      vertex 0 3.5 27.5
      vertex 0 0 6
      vertex 0 0 27.5
    endloop
  endfacet
  facet normal 0 1 0
    outer loop
      vertex 1.5 3.5 22
      vertex 0.75 3.5 6
      vertex 0.75 3.5 22
    endloop
  endfacet
  facet normal 0 1 -0
    outer loop
      vertex 1.5 3.5 0
      vertex 0.75 3.5 6
      vertex 1.5 3.5 22
    endloop
  endfacet
  facet normal 0 1 0
    outer loop
      vertex 0.75 3.5 6
      vertex 1.5 3.5 0
      vertex 0.75 3.5 2.5
    endloop
  endfacet
  facet normal 0 1 0
    outer loop
      vertex 0 3.5 0
      vertex 0.75 3.5 2.5
      vertex 1.5 3.5 0
    endloop
  endfacet
  facet normal 0 1 0
    outer loop
      vertex 0.75 3.5 2.5
      vertex 0 3.5 0
      vertex 0 3.5 2.5
    endloop
  endfacet
  facet normal 0 1 0
    outer loop
      vertex 1.5 3.5 70.5
      vertex 0.75 3.5 31
      vertex 0 3.5 70.5
    endloop
  endfacet
  facet normal 0 1 -0
    outer loop
      vertex 1.5 3.5 22.25
      vertex 0.75 3.5 31
      vertex 1.5 3.5 70.5
    endloop
  endfacet
  facet normal 0 1 0
    outer loop
      vertex 0.75 3.5 31
      vertex 1.5 3.5 22.25
      vertex 0.75 3.5 27.5
    endloop
  endfacet
  facet normal 0 1 0
    outer loop
      vertex 0.75 3.5 22.25
      vertex 0.75 3.5 27.5
      vertex 1.5 3.5 22.25
    endloop
  endfacet
  facet normal 0 1 0
    outer loop
      vertex 0.75 3.5 27.5
      vertex 0.75 3.5 22.25
      vertex 0 3.5 27.5
    endloop
  endfacet
  facet normal 0 1 -0
    outer loop
      vertex 0.75 3.5 22
      vertex 0 3.5 27.5
      vertex 0.75 3.5 22.25
    endloop
  endfacet
  facet normal 0 1 0
    outer loop
      vertex 0 3.5 6
      vertex 0.75 3.5 22
      vertex 0.75 3.5 6
    endloop
  endfacet
  facet normal 0 1 0
    outer loop
      vertex 0.75 3.5 22
      vertex 0 3.5 6
      vertex 0 3.5 27.5
    endloop
  endfacet
  facet normal 0 1 0
    outer loop
      vertex 0 3.5 70.5
      vertex 0.75 3.5 31
      vertex 0 3.5 31
    endloop
  endfacet
  facet normal 0 -1 0
    outer loop
      vertex 0 0 2.5
      vertex 0 0 0
      vertex 0.75 0 2.5
    endloop
  endfacet
  facet normal 0 -1 0
    outer loop
      vertex 0 0 27.5
      vertex 0.75 0 22.25
      vertex 0.75 0 27.5
    endloop
  endfacet
  facet normal 0 -1 0
    outer loop
      vertex 0 0 27.5
      vertex 0.75 0 22
      vertex 0.75 0 22.25
    endloop
  endfacet
  facet normal 0 -1 0
    outer loop
      vertex 0 0 6
      vertex 0.75 0 22
      vertex 0 0 27.5
    endloop
  endfacet
  facet normal 0 -1 0
    outer loop
      vertex 0.75 0 6
      vertex 0.75 0 22
      vertex 0 0 6
    endloop
  endfacet
  facet normal 0 -1 0
    outer loop
      vertex 0.75 0 22
      vertex 0.75 0 6
      vertex 1.5 0 22
    endloop
  endfacet
  facet normal 0 -1 0
    outer loop
      vertex 1.5 0 0
      vertex 0.75 0 6
      vertex 0.75 0 2.5
    endloop
  endfacet
  facet normal 0 -1 0
    outer loop
      vertex 0.75 0 6
      vertex 1.5 0 0
      vertex 1.5 0 22
    endloop
  endfacet
  facet normal 0 -1 0
    outer loop
      vertex 1.5 0 0
      vertex 0.75 0 2.5
      vertex 0 0 0
    endloop
  endfacet
  facet normal 0 -1 0
    outer loop
      vertex 0.75 0 31
      vertex 0 0 50
      vertex 0 0 31
    endloop
  endfacet
  facet normal 0 -1 0
    outer loop
      vertex 0 0 50
      vertex 0.75 0 31
      vertex 1.5 0 50
    endloop
  endfacet
  facet normal 0 -1 0
    outer loop
      vertex 1.5 0 22.25
      vertex 0.75 0 31
      vertex 0.75 0 27.5
    endloop
  endfacet
  facet normal 0 -1 0
    outer loop
      vertex 1.5 0 22.25
      vertex 0.75 0 27.5
      vertex 0.75 0 22.25
    endloop
  endfacet
  facet normal 0 -1 0
    outer loop
      vertex 0.75 0 31
      vertex 1.5 0 22.25
      vertex 1.5 0 50
    endloop
  endfacet
  facet normal 0 -1 0
    outer loop
      vertex 0 0 51.5
      vertex 1.5 0 70.5
      vertex 0 0 70.5
    endloop
  endfacet
  facet normal 0 -1 -0
    outer loop
      vertex 1.5 0 70.5
      vertex 0 0 51.5
      vertex 1.5 0 51.5
    endloop
  endfacet
  facet normal -1 0 0
    outer loop
      vertex 0.75 0 27.5
      vertex 0.75 3.5 31
      vertex 0.75 3.5 27.5
    endloop
  endfacet
  facet normal -1 -0 0
    outer loop
      vertex 0.75 3.5 31
      vertex 0.75 0 27.5
      vertex 0.75 0 31
    endloop
  endfacet
  facet normal 0 0 -1
    outer loop
      vertex 0 0 31
      vertex 0.75 3.5 31
      vertex 0.75 0 31
    endloop
  endfacet
  facet normal -0 0 -1
    outer loop
      vertex 0.75 3.5 31
      vertex 0 0 31
      vertex 0 3.5 31
    endloop
  endfacet
  facet normal -0 0 1
    outer loop
      vertex 0 3.5 27.5
      vertex 0.75 0 27.5
      vertex 0.75 3.5 27.5
    endloop
  endfacet
  facet normal 0 0 1
    outer loop
      vertex 0.75 0 27.5
      vertex 0 3.5 27.5
      vertex 0 0 27.5
    endloop
  endfacet
  facet normal -1 0 0
    outer loop
      vertex 0.75 0 2.5
      vertex 0.75 3.5 6
      vertex 0.75 3.5 2.5
    endloop
  endfacet
  facet normal -1 -0 0
    outer loop
      vertex 0.75 3.5 6
      vertex 0.75 0 2.5
      vertex 0.75 0 6
    endloop
  endfacet
  facet normal 0 0 -1
    outer loop
      vertex 0 0 6
      vertex 0.75 3.5 6
      vertex 0.75 0 6
    endloop
  endfacet
  facet normal -0 0 -1
    outer loop
      vertex 0.75 3.5 6
      vertex 0 0 6
      vertex 0 3.5 6
    endloop
  endfacet
  facet normal -0 0 1
    outer loop
      vertex 0 3.5 2.5
      vertex 0.75 0 2.5
      vertex 0.75 3.5 2.5
    endloop
  endfacet
  facet normal 0 0 1
    outer loop
      vertex 0.75 0 2.5
      vertex 0 3.5 2.5
      vertex 0 0 2.5
    endloop
  endfacet
  facet normal -0 0 1
    outer loop
      vertex 0 3.5 70.5
      vertex 1.5 0 70.5
      vertex 1.5 3.5 70.5
    endloop
  endfacet
  facet normal 0 0 1
    outer loop
      vertex 1.5 0 70.5
      vertex 0 3.5 70.5
      vertex 0 0 70.5
    endloop
  endfacet
  facet normal 0 0 -1
    outer loop
      vertex 0 0 51.5
      vertex 1.5 1.75 51.5
      vertex 1.5 0 51.5
    endloop
  endfacet
  facet normal -0 0 -1
    outer loop
      vertex 1.5 1.75 51.5
      vertex 0 0 51.5
      vertex 0 1.75 51.5
    endloop
  endfacet
  facet normal -0 0 1
    outer loop
      vertex 0 1.75 50
      vertex 1.5 0 50
      vertex 1.5 1.75 50
    endloop
  endfacet
  facet normal 0 0 1
    outer loop
      vertex 1.5 0 50
      vertex 0 1.75 50
      vertex 0 0 50
    endloop
  endfacet
  facet normal 0 -1 0
    outer loop
      vertex 0 1.75 50
      vertex 1.5 1.75 51.5
      vertex 0 1.75 51.5
    endloop
  endfacet
  facet normal 0 -1 -0
    outer loop
      vertex 1.5 1.75 51.5
      vertex 0 1.75 50
      vertex 1.5 1.75 50
    endloop
  endfacet
  facet normal 0 0 -1
    outer loop
      vertex 0.75 0 22.25
      vertex 1.5 3.5 22.25
      vertex 1.5 0 22.25
    endloop
  endfacet
  facet normal -0 0 -1
    outer loop
      vertex 1.5 3.5 22.25
      vertex 0.75 0 22.25
      vertex 0.75 3.5 22.25
    endloop
  endfacet
  facet normal -0 0 1
    outer loop
      vertex 0.75 3.5 22
      vertex 1.5 0 22
      vertex 1.5 3.5 22
    endloop
  endfacet
  facet normal 0 0 1
    outer loop
      vertex 1.5 0 22
      vertex 0.75 3.5 22
      vertex 0.75 0 22
    endloop
  endfacet
  facet normal 1 -0 0
    outer loop
      vertex 0.75 0 22.25
      vertex 0.75 3.5 22
      vertex 0.75 3.5 22.25
    endloop
  endfacet
  facet normal 1 0 0
    outer loop
      vertex 0.75 3.5 22
      vertex 0.75 0 22.25
      vertex 0.75 0 22
    endloop
  endfacet
endsolid OpenSCAD_Model
