solid OpenSCAD_Model
  facet normal 1 -0 0
    outer loop
      vertex 96 0 1.75
      vertex 96 0.75 0
      vertex 96 0.75 1.75
    endloop
  endfacet
  facet normal 1 0 0
    outer loop
      vertex 96 0.75 0
      vertex 96 0 1.75
      vertex 96 0 0
    endloop
  endfacet
  facet normal 0 0 1
    outer loop
      vertex 22.5 1.5 3.5
      vertex 1.5 1.5 3.5
      vertex 22.5 0.75 3.5
    endloop
  endfacet
  facet normal -0 0 1
    outer loop
      vertex 22.5 0.75 3.5
      vertex 23.25 0 3.5
      vertex 23.25 0.75 3.5
    endloop
  endfacet
  facet normal 0 0 1
    outer loop
      vertex 1.5 0.75 3.5
      vertex 22.5 0.75 3.5
      vertex 1.5 1.5 3.5
    endloop
  endfacet
  facet normal 0 0 1
    outer loop
      vertex 22.5 0.75 3.5
      vertex 1.5 0.75 3.5
      vertex 23.25 0 3.5
    endloop
  endfacet
  facet normal 0 0 1
    outer loop
      vertex 0.75 0 3.5
      vertex 1.5 0.75 3.5
      vertex 0.75 0.75 3.5
    endloop
  endfacet
  facet normal 0 0 1
    outer loop
      vertex 1.5 0.75 3.5
      vertex 0.75 0 3.5
      vertex 23.25 0 3.5
    endloop
  endfacet
  facet normal 0 0 1
    outer loop
      vertex 94.5 1.5 3.5
      vertex 72.75 1.5 3.5
      vertex 94.5 0.75 3.5
    endloop
  endfacet
  facet normal -0 0 1
    outer loop
      vertex 94.5 0.75 3.5
      vertex 95.25 0 3.5
      vertex 95.25 0.75 3.5
    endloop
  endfacet
  facet normal 0 0 1
    outer loop
      vertex 72.75 0 3.5
      vertex 94.5 0.75 3.5
      vertex 72.75 1.5 3.5
    endloop
  endfacet
  facet normal 0 0 1
    outer loop
      vertex 94.5 0.75 3.5
      vertex 72.75 0 3.5
      vertex 95.25 0 3.5
    endloop
  endfacet
  facet normal -0 0 1
    outer loop
      vertex 24 1.5 3.5
      vertex 36 0 3.5
      vertex 36 1.5 3.5
    endloop
  endfacet
  facet normal 0 0 1
    outer loop
      vertex 36 0 3.5
      vertex 24 1.5 3.5
      vertex 24 0 3.5
    endloop
  endfacet
  facet normal -0 0 1
    outer loop
      vertex 61.5 1.5 3.5
      vertex 72 0 3.5
      vertex 72 1.5 3.5
    endloop
  endfacet
  facet normal 0 0 1
    outer loop
      vertex 72 0 3.5
      vertex 61.5 1.5 3.5
      vertex 61.5 0 3.5
    endloop
  endfacet
  facet normal -0 0 1
    outer loop
      vertex 37.5 1.5 3.5
      vertex 48 0 3.5
      vertex 48 1.5 3.5
    endloop
  endfacet
  facet normal 0 0 1
    outer loop
      vertex 48 0 3.5
      vertex 37.5 1.5 3.5
      vertex 37.5 0 3.5
    endloop
  endfacet
  facet normal -0 0 1
    outer loop
      vertex 49.5 1.5 3.5
      vertex 60 0 3.5
      vertex 60 1.5 3.5
    endloop
  endfacet
  facet normal 0 0 1
    outer loop
      vertex 60 0 3.5
      vertex 49.5 1.5 3.5
      vertex 49.5 0 3.5
    endloop
  endfacet
  facet normal 0 0 -1
    outer loop
      vertex 96 0 0
      vertex 94.5 0.75 0
      vertex 96 0.75 0
    endloop
  endfacet
  facet normal 0 0 -1
    outer loop
      vertex 94.5 0.75 0
      vertex 72.75 0.75 0
      vertex 94.5 1.5 0
    endloop
  endfacet
  facet normal 0 0 -1
    outer loop
      vertex 96 0 0
      vertex 72.75 0.75 0
      vertex 94.5 0.75 0
    endloop
  endfacet
  facet normal 0 0 -1
    outer loop
      vertex 96 0 0
      vertex 72 0.75 0
      vertex 72.75 0.75 0
    endloop
  endfacet
  facet normal 0 0 -1
    outer loop
      vertex 72 0.75 0
      vertex 23.25 0.75 0
      vertex 72 1.5 0
    endloop
  endfacet
  facet normal 0 0 -1
    outer loop
      vertex 96 0 0
      vertex 23.25 0.75 0
      vertex 72 0.75 0
    endloop
  endfacet
  facet normal 0 0 -1
    outer loop
      vertex 0 0 0
      vertex 23.25 0.75 0
      vertex 96 0 0
    endloop
  endfacet
  facet normal 0 0 -1
    outer loop
      vertex 22.5 0.75 0
      vertex 1.5 0.75 0
      vertex 22.5 1.5 0
    endloop
  endfacet
  facet normal -0 0 -1
    outer loop
      vertex 23.25 0.75 0
      vertex 0 0 0
      vertex 22.5 0.75 0
    endloop
  endfacet
  facet normal -0 0 -1
    outer loop
      vertex 22.5 0.75 0
      vertex 0 0 0
      vertex 1.5 0.75 0
    endloop
  endfacet
  facet normal -0 0 -1
    outer loop
      vertex 1.5 0.75 0
      vertex 0 0 0
      vertex 0 0.75 0
    endloop
  endfacet
  facet normal -0 0 -1
    outer loop
      vertex 94.5 1.5 0
      vertex 72.75 0.75 0
      vertex 72.75 1.5 0
    endloop
  endfacet
  facet normal -0 0 -1
    outer loop
      vertex 72 1.5 0
      vertex 23.25 0.75 0
      vertex 23.25 1.5 0
    endloop
  endfacet
  facet normal -0 0 -1
    outer loop
      vertex 22.5 1.5 0
      vertex 1.5 0.75 0
      vertex 1.5 1.5 0
    endloop
  endfacet
  facet normal -1 0 0
    outer loop
      vertex 0 0 0
      vertex 0 0.75 1.75
      vertex 0 0.75 0
    endloop
  endfacet
  facet normal -1 -0 0
    outer loop
      vertex 0 0.75 1.75
      vertex 0 0 0
      vertex 0 0 1.75
    endloop
  endfacet
  facet normal 0 1 -0
    outer loop
      vertex 22.5 1.5 0
      vertex 1.5 1.5 3.5
      vertex 22.5 1.5 3.5
    endloop
  endfacet
  facet normal 0 1 0
    outer loop
      vertex 1.5 1.5 3.5
      vertex 22.5 1.5 0
      vertex 1.5 1.5 0
    endloop
  endfacet
  facet normal 0 1 -0
    outer loop
      vertex 94.5 1.5 0
      vertex 72.75 1.5 3.5
      vertex 94.5 1.5 3.5
    endloop
  endfacet
  facet normal 0 1 0
    outer loop
      vertex 72.75 1.5 3.5
      vertex 94.5 1.5 0
      vertex 72.75 1.5 0
    endloop
  endfacet
  facet normal 0 1 0
    outer loop
      vertex 72 1.5 3.5
      vertex 61.5 1.5 1.75
      vertex 61.5 1.5 3.5
    endloop
  endfacet
  facet normal 0 1 0
    outer loop
      vertex 72 1.5 0
      vertex 60 1.5 1.75
      vertex 61.5 1.5 1.75
    endloop
  endfacet
  facet normal 0 1 0
    outer loop
      vertex 60 1.5 1.75
      vertex 72 1.5 0
      vertex 49.5 1.5 1.75
    endloop
  endfacet
  facet normal 0 1 0
    outer loop
      vertex 49.5 1.5 1.75
      vertex 72 1.5 0
      vertex 48 1.5 1.75
    endloop
  endfacet
  facet normal 0 1 0
    outer loop
      vertex 23.25 1.5 0
      vertex 48 1.5 1.75
      vertex 72 1.5 0
    endloop
  endfacet
  facet normal 0 1 0
    outer loop
      vertex 48 1.5 1.75
      vertex 23.25 1.5 0
      vertex 37.5 1.5 1.75
    endloop
  endfacet
  facet normal 0 1 0
    outer loop
      vertex 36 1.5 1.75
      vertex 23.25 1.5 0
      vertex 24 1.5 1.75
    endloop
  endfacet
  facet normal 0 1 -0
    outer loop
      vertex 72 1.5 0
      vertex 61.5 1.5 1.75
      vertex 72 1.5 3.5
    endloop
  endfacet
  facet normal 0 1 0
    outer loop
      vertex 37.5 1.5 1.75
      vertex 23.25 1.5 0
      vertex 36 1.5 1.75
    endloop
  endfacet
  facet normal 0 1 0
    outer loop
      vertex 24 1.5 1.75
      vertex 23.25 1.5 0
      vertex 23.25 1.5 1.75
    endloop
  endfacet
  facet normal 0 1 -0
    outer loop
      vertex 60 1.5 1.75
      vertex 49.5 1.5 3.5
      vertex 60 1.5 3.5
    endloop
  endfacet
  facet normal 0 1 0
    outer loop
      vertex 49.5 1.5 3.5
      vertex 60 1.5 1.75
      vertex 49.5 1.5 1.75
    endloop
  endfacet
  facet normal 0 1 -0
    outer loop
      vertex 48 1.5 1.75
      vertex 37.5 1.5 3.5
      vertex 48 1.5 3.5
    endloop
  endfacet
  facet normal 0 1 0
    outer loop
      vertex 37.5 1.5 3.5
      vertex 48 1.5 1.75
      vertex 37.5 1.5 1.75
    endloop
  endfacet
  facet normal 0 1 -0
    outer loop
      vertex 36 1.5 1.75
      vertex 24 1.5 3.5
      vertex 36 1.5 3.5
    endloop
  endfacet
  facet normal 0 1 0
    outer loop
      vertex 24 1.5 3.5
      vertex 36 1.5 1.75
      vertex 24 1.5 1.75
    endloop
  endfacet
  facet normal 0 -1 0
    outer loop
      vertex 0 0 0
      vertex 0.75 0 1.75
      vertex 0 0 1.75
    endloop
  endfacet
  facet normal 0 -1 -0
    outer loop
      vertex 0.75 0 1.75
      vertex 0 0 0
      vertex 23.25 0 1.75
    endloop
  endfacet
  facet normal 0 -1 -0
    outer loop
      vertex 23.25 0 1.75
      vertex 0 0 0
      vertex 24 0 1.75
    endloop
  endfacet
  facet normal 0 -1 -0
    outer loop
      vertex 24 0 1.75
      vertex 0 0 0
      vertex 36 0 1.75
    endloop
  endfacet
  facet normal 0 -1 -0
    outer loop
      vertex 36 0 1.75
      vertex 0 0 0
      vertex 37.5 0 1.75
    endloop
  endfacet
  facet normal 0 -1 -0
    outer loop
      vertex 37.5 0 1.75
      vertex 0 0 0
      vertex 48 0 1.75
    endloop
  endfacet
  facet normal 0 -1 -0
    outer loop
      vertex 48 0 1.75
      vertex 0 0 0
      vertex 49.5 0 1.75
    endloop
  endfacet
  facet normal 0 -1 0
    outer loop
      vertex 96 0 0
      vertex 49.5 0 1.75
      vertex 0 0 0
    endloop
  endfacet
  facet normal 0 -1 0
    outer loop
      vertex 49.5 0 1.75
      vertex 96 0 0
      vertex 60 0 1.75
    endloop
  endfacet
  facet normal 0 -1 0
    outer loop
      vertex 60 0 1.75
      vertex 96 0 0
      vertex 61.5 0 1.75
    endloop
  endfacet
  facet normal 0 -1 0
    outer loop
      vertex 61.5 0 1.75
      vertex 96 0 0
      vertex 72 0 1.75
    endloop
  endfacet
  facet normal 0 -1 0
    outer loop
      vertex 72 0 1.75
      vertex 96 0 0
      vertex 72.75 0 1.75
    endloop
  endfacet
  facet normal 0 -1 0
    outer loop
      vertex 72.75 0 1.75
      vertex 96 0 0
      vertex 95.25 0 1.75
    endloop
  endfacet
  facet normal 0 -1 0
    outer loop
      vertex 95.25 0 1.75
      vertex 96 0 0
      vertex 96 0 1.75
    endloop
  endfacet
  facet normal 0 -1 0
    outer loop
      vertex 0.75 0 1.75
      vertex 23.25 0 3.5
      vertex 0.75 0 3.5
    endloop
  endfacet
  facet normal 0 -1 -0
    outer loop
      vertex 23.25 0 3.5
      vertex 0.75 0 1.75
      vertex 23.25 0 1.75
    endloop
  endfacet
  facet normal 0 -1 0
    outer loop
      vertex 24 0 1.75
      vertex 36 0 3.5
      vertex 24 0 3.5
    endloop
  endfacet
  facet normal 0 -1 -0
    outer loop
      vertex 36 0 3.5
      vertex 24 0 1.75
      vertex 36 0 1.75
    endloop
  endfacet
  facet normal 0 -1 0
    outer loop
      vertex 37.5 0 1.75
      vertex 48 0 3.5
      vertex 37.5 0 3.5
    endloop
  endfacet
  facet normal 0 -1 -0
    outer loop
      vertex 48 0 3.5
      vertex 37.5 0 1.75
      vertex 48 0 1.75
    endloop
  endfacet
  facet normal 0 -1 0
    outer loop
      vertex 49.5 0 1.75
      vertex 60 0 3.5
      vertex 49.5 0 3.5
    endloop
  endfacet
  facet normal 0 -1 -0
    outer loop
      vertex 60 0 3.5
      vertex 49.5 0 1.75
      vertex 60 0 1.75
    endloop
  endfacet
  facet normal 0 -1 0
    outer loop
      vertex 61.5 0 1.75
      vertex 72 0 3.5
      vertex 61.5 0 3.5
    endloop
  endfacet
  facet normal 0 -1 -0
    outer loop
      vertex 72 0 3.5
      vertex 61.5 0 1.75
      vertex 72 0 1.75
    endloop
  endfacet
  facet normal 0 -1 0
    outer loop
      vertex 72.75 0 1.75
      vertex 95.25 0 3.5
      vertex 72.75 0 3.5
    endloop
  endfacet
  facet normal 0 -1 -0
    outer loop
      vertex 95.25 0 3.5
      vertex 72.75 0 1.75
      vertex 95.25 0 1.75
    endloop
  endfacet
  facet normal -1 0 0
    outer loop
      vertex 1.5 0.75 0
      vertex 1.5 1.5 3.5
      vertex 1.5 1.5 0
    endloop
  endfacet
  facet normal -1 -0 0
    outer loop
      vertex 1.5 1.5 3.5
      vertex 1.5 0.75 0
      vertex 1.5 0.75 3.5
    endloop
  endfacet
  facet normal 0 1 0
    outer loop
      vertex 1.5 0.75 3.5
      vertex 0.75 0.75 1.75
      vertex 0.75 0.75 3.5
    endloop
  endfacet
  facet normal 0 1 -0
    outer loop
      vertex 1.5 0.75 0
      vertex 0.75 0.75 1.75
      vertex 1.5 0.75 3.5
    endloop
  endfacet
  facet normal 0 1 0
    outer loop
      vertex 0 0.75 0
      vertex 0.75 0.75 1.75
      vertex 1.5 0.75 0
    endloop
  endfacet
  facet normal 0 1 0
    outer loop
      vertex 0.75 0.75 1.75
      vertex 0 0.75 0
      vertex 0 0.75 1.75
    endloop
  endfacet
  facet normal -1 0 0
    outer loop
      vertex 0.75 0 1.75
      vertex 0.75 0.75 3.5
      vertex 0.75 0.75 1.75
    endloop
  endfacet
  facet normal -1 -0 0
    outer loop
      vertex 0.75 0.75 3.5
      vertex 0.75 0 1.75
      vertex 0.75 0 3.5
    endloop
  endfacet
  facet normal -0 0 1
    outer loop
      vertex 0 0.75 1.75
      vertex 0.75 0 1.75
      vertex 0.75 0.75 1.75
    endloop
  endfacet
  facet normal 0 0 1
    outer loop
      vertex 0.75 0 1.75
      vertex 0 0.75 1.75
      vertex 0 0 1.75
    endloop
  endfacet
  facet normal 1 -0 0
    outer loop
      vertex 94.5 0.75 3.5
      vertex 94.5 1.5 0
      vertex 94.5 1.5 3.5
    endloop
  endfacet
  facet normal 1 0 0
    outer loop
      vertex 94.5 1.5 0
      vertex 94.5 0.75 3.5
      vertex 94.5 0.75 0
    endloop
  endfacet
  facet normal 0 1 0
    outer loop
      vertex 96 0.75 1.75
      vertex 96 0.75 0
      vertex 95.25 0.75 1.75
    endloop
  endfacet
  facet normal 0 1 -0
    outer loop
      vertex 95.25 0.75 1.75
      vertex 94.5 0.75 3.5
      vertex 95.25 0.75 3.5
    endloop
  endfacet
  facet normal 0 1 0
    outer loop
      vertex 94.5 0.75 0
      vertex 95.25 0.75 1.75
      vertex 96 0.75 0
    endloop
  endfacet
  facet normal 0 1 0
    outer loop
      vertex 95.25 0.75 1.75
      vertex 94.5 0.75 0
      vertex 94.5 0.75 3.5
    endloop
  endfacet
  facet normal -0 0 1
    outer loop
      vertex 95.25 0.75 1.75
      vertex 96 0 1.75
      vertex 96 0.75 1.75
    endloop
  endfacet
  facet normal 0 0 1
    outer loop
      vertex 96 0 1.75
      vertex 95.25 0.75 1.75
      vertex 95.25 0 1.75
    endloop
  endfacet
  facet normal 1 -0 0
    outer loop
      vertex 95.25 0 3.5
      vertex 95.25 0.75 1.75
      vertex 95.25 0.75 3.5
    endloop
  endfacet
  facet normal 1 0 0
    outer loop
      vertex 95.25 0.75 1.75
      vertex 95.25 0 3.5
      vertex 95.25 0 1.75
    endloop
  endfacet
  facet normal -1 0 0
    outer loop
      vertex 23.25 0.75 0
      vertex 23.25 1.5 1.75
      vertex 23.25 1.5 0
    endloop
  endfacet
  facet normal -1 -0 0
    outer loop
      vertex 23.25 1.5 1.75
      vertex 23.25 0.75 0
      vertex 23.25 0.75 1.75
    endloop
  endfacet
  facet normal 1 -0 0
    outer loop
      vertex 23.25 0 3.5
      vertex 23.25 0.75 1.75
      vertex 23.25 0.75 3.5
    endloop
  endfacet
  facet normal 1 0 0
    outer loop
      vertex 23.25 0.75 1.75
      vertex 23.25 0 3.5
      vertex 23.25 0 1.75
    endloop
  endfacet
  facet normal 1 -0 0
    outer loop
      vertex 22.5 0.75 3.5
      vertex 22.5 1.5 0
      vertex 22.5 1.5 3.5
    endloop
  endfacet
  facet normal 1 0 0
    outer loop
      vertex 22.5 1.5 0
      vertex 22.5 0.75 3.5
      vertex 22.5 0.75 0
    endloop
  endfacet
  facet normal 0 1 -0
    outer loop
      vertex 23.25 0.75 1.75
      vertex 22.5 0.75 3.5
      vertex 23.25 0.75 3.5
    endloop
  endfacet
  facet normal 0 1 0
    outer loop
      vertex 22.5 0.75 0
      vertex 23.25 0.75 1.75
      vertex 23.25 0.75 0
    endloop
  endfacet
  facet normal 0 1 0
    outer loop
      vertex 23.25 0.75 1.75
      vertex 22.5 0.75 0
      vertex 22.5 0.75 3.5
    endloop
  endfacet
  facet normal -1 0 0
    outer loop
      vertex 24 0 1.75
      vertex 24 1.5 3.5
      vertex 24 1.5 1.75
    endloop
  endfacet
  facet normal -1 -0 0
    outer loop
      vertex 24 1.5 3.5
      vertex 24 0 1.75
      vertex 24 0 3.5
    endloop
  endfacet
  facet normal 0 0 1
    outer loop
      vertex 23.25 0.75 1.75
      vertex 24 1.5 1.75
      vertex 23.25 1.5 1.75
    endloop
  endfacet
  facet normal 0 0 1
    outer loop
      vertex 24 1.5 1.75
      vertex 23.25 0.75 1.75
      vertex 24 0 1.75
    endloop
  endfacet
  facet normal 0 0 1
    outer loop
      vertex 24 0 1.75
      vertex 23.25 0.75 1.75
      vertex 23.25 0 1.75
    endloop
  endfacet
  facet normal -1 0 0
    outer loop
      vertex 72.75 0.75 1.75
      vertex 72.75 1.5 0
      vertex 72.75 0.75 0
    endloop
  endfacet
  facet normal -1 0 0
    outer loop
      vertex 72.75 1.5 0
      vertex 72.75 0.75 1.75
      vertex 72.75 1.5 3.5
    endloop
  endfacet
  facet normal -1 0 0
    outer loop
      vertex 72.75 0 3.5
      vertex 72.75 0.75 1.75
      vertex 72.75 0 1.75
    endloop
  endfacet
  facet normal -1 0 0
    outer loop
      vertex 72.75 0.75 1.75
      vertex 72.75 0 3.5
      vertex 72.75 1.5 3.5
    endloop
  endfacet
  facet normal 1 0 0
    outer loop
      vertex 72 1.5 3.5
      vertex 72 0.75 1.75
      vertex 72 1.5 0
    endloop
  endfacet
  facet normal 1 -0 0
    outer loop
      vertex 72 0 3.5
      vertex 72 0.75 1.75
      vertex 72 1.5 3.5
    endloop
  endfacet
  facet normal 1 0 0
    outer loop
      vertex 72 0.75 1.75
      vertex 72 0 3.5
      vertex 72 0 1.75
    endloop
  endfacet
  facet normal 1 0 0
    outer loop
      vertex 72 1.5 0
      vertex 72 0.75 1.75
      vertex 72 0.75 0
    endloop
  endfacet
  facet normal 0 1 -0
    outer loop
      vertex 72.75 0.75 0
      vertex 72 0.75 1.75
      vertex 72.75 0.75 1.75
    endloop
  endfacet
  facet normal 0 1 0
    outer loop
      vertex 72 0.75 1.75
      vertex 72.75 0.75 0
      vertex 72 0.75 0
    endloop
  endfacet
  facet normal -0 0 1
    outer loop
      vertex 72 0.75 1.75
      vertex 72.75 0 1.75
      vertex 72.75 0.75 1.75
    endloop
  endfacet
  facet normal 0 0 1
    outer loop
      vertex 72.75 0 1.75
      vertex 72 0.75 1.75
      vertex 72 0 1.75
    endloop
  endfacet
  facet normal -1 0 0
    outer loop
      vertex 37.5 0 1.75
      vertex 37.5 1.5 3.5
      vertex 37.5 1.5 1.75
    endloop
  endfacet
  facet normal -1 -0 0
    outer loop
      vertex 37.5 1.5 3.5
      vertex 37.5 0 1.75
      vertex 37.5 0 3.5
    endloop
  endfacet
  facet normal -0 0 1
    outer loop
      vertex 36 1.5 1.75
      vertex 37.5 0 1.75
      vertex 37.5 1.5 1.75
    endloop
  endfacet
  facet normal 0 0 1
    outer loop
      vertex 37.5 0 1.75
      vertex 36 1.5 1.75
      vertex 36 0 1.75
    endloop
  endfacet
  facet normal 1 -0 0
    outer loop
      vertex 36 0 3.5
      vertex 36 1.5 1.75
      vertex 36 1.5 3.5
    endloop
  endfacet
  facet normal 1 0 0
    outer loop
      vertex 36 1.5 1.75
      vertex 36 0 3.5
      vertex 36 0 1.75
    endloop
  endfacet
  facet normal -1 0 0
    outer loop
      vertex 49.5 0 1.75
      vertex 49.5 1.5 3.5
      vertex 49.5 1.5 1.75
    endloop
  endfacet
  facet normal -1 -0 0
    outer loop
      vertex 49.5 1.5 3.5
      vertex 49.5 0 1.75
      vertex 49.5 0 3.5
    endloop
  endfacet
  facet normal -0 0 1
    outer loop
      vertex 48 1.5 1.75
      vertex 49.5 0 1.75
      vertex 49.5 1.5 1.75
    endloop
  endfacet
  facet normal 0 0 1
    outer loop
      vertex 49.5 0 1.75
      vertex 48 1.5 1.75
      vertex 48 0 1.75
    endloop
  endfacet
  facet normal 1 -0 0
    outer loop
      vertex 48 0 3.5
      vertex 48 1.5 1.75
      vertex 48 1.5 3.5
    endloop
  endfacet
  facet normal 1 0 0
    outer loop
      vertex 48 1.5 1.75
      vertex 48 0 3.5
      vertex 48 0 1.75
    endloop
  endfacet
  facet normal -1 0 0
    outer loop
      vertex 61.5 0 1.75
      vertex 61.5 1.5 3.5
      vertex 61.5 1.5 1.75
    endloop
  endfacet
  facet normal -1 -0 0
    outer loop
      vertex 61.5 1.5 3.5
      vertex 61.5 0 1.75
      vertex 61.5 0 3.5
    endloop
  endfacet
  facet normal -0 0 1
    outer loop
      vertex 60 1.5 1.75
      vertex 61.5 0 1.75
      vertex 61.5 1.5 1.75
    endloop
  endfacet
  facet normal 0 0 1
    outer loop
      vertex 61.5 0 1.75
      vertex 60 1.5 1.75
      vertex 60 0 1.75
    endloop
  endfacet
  facet normal 1 -0 0
    outer loop
      vertex 60 0 3.5
      vertex 60 1.5 1.75
      vertex 60 1.5 3.5
    endloop
  endfacet
  facet normal 1 0 0
    outer loop
      vertex 60 1.5 1.75
      vertex 60 0 3.5
      vertex 60 0 1.75
    endloop
  endfacet
endsolid OpenSCAD_Model
