solid OpenSCAD_Model
  facet normal 1 -0 0
    outer loop
      vertex 96 0 0.75
      vertex 96 3.5 0
      vertex 96 3.5 0.75
    endloop
  endfacet
  facet normal 1 0 0
    outer loop
      vertex 96 3.5 0
      vertex 96 0 0.75
      vertex 96 0 0
    endloop
  endfacet
  facet normal -0 0 1
    outer loop
      vertex 3.5 3.5 1.5
      vertex 20.5 0 1.5
      vertex 20.5 3.5 1.5
    endloop
  endfacet
  facet normal 0 0 1
    outer loop
      vertex 20.5 0 1.5
      vertex 3.5 3.5 1.5
      vertex 3.5 0 1.5
    endloop
  endfacet
  facet normal -0 0 1
    outer loop
      vertex 75.5 3.5 1.5
      vertex 92.5 0 1.5
      vertex 92.5 3.5 1.5
    endloop
  endfacet
  facet normal 0 0 1
    outer loop
      vertex 92.5 0 1.5
      vertex 75.5 3.5 1.5
      vertex 75.5 0 1.5
    endloop
  endfacet
  facet normal -0 0 1
    outer loop
      vertex 24 3.5 1.5
      vertex 72 0 1.5
      vertex 72 3.5 1.5
    endloop
  endfacet
  facet normal 0 0 1
    outer loop
      vertex 72 0 1.5
      vertex 24 3.5 1.5
      vertex 24 0 1.5
    endloop
  endfacet
  facet normal 0 0 -1
    outer loop
      vertex 0 0 0
      vertex 96 3.5 0
      vertex 96 0 0
    endloop
  endfacet
  facet normal -0 0 -1
    outer loop
      vertex 96 3.5 0
      vertex 0 0 0
      vertex 0 3.5 0
    endloop
  endfacet
  facet normal -1 0 0
    outer loop
      vertex 0 0 0
      vertex 0 3.5 0.75
      vertex 0 3.5 0
    endloop
  endfacet
  facet normal -1 -0 0
    outer loop
      vertex 0 3.5 0.75
      vertex 0 0 0
      vertex 0 0 0.75
    endloop
  endfacet
  facet normal 0 1 -0
    outer loop
      vertex 96 3.5 0
      vertex 92.5 3.5 0.75
      vertex 96 3.5 0.75
    endloop
  endfacet
  facet normal 0 1 0
    outer loop
      vertex 92.5 3.5 0.75
      vertex 96 3.5 0
      vertex 75.5 3.5 0.75
    endloop
  endfacet
  facet normal 0 1 0
    outer loop
      vertex 75.5 3.5 0.75
      vertex 96 3.5 0
      vertex 72 3.5 0.75
    endloop
  endfacet
  facet normal 0 1 0
    outer loop
      vertex 72 3.5 0.75
      vertex 96 3.5 0
      vertex 24 3.5 0.75
    endloop
  endfacet
  facet normal 0 1 0
    outer loop
      vertex 0 3.5 0
      vertex 24 3.5 0.75
      vertex 96 3.5 0
    endloop
  endfacet
  facet normal 0 1 0
    outer loop
      vertex 24 3.5 0.75
      vertex 0 3.5 0
      vertex 20.5 3.5 0.75
    endloop
  endfacet
  facet normal 0 1 0
    outer loop
      vertex 20.5 3.5 0.75
      vertex 0 3.5 0
      vertex 3.5 3.5 0.75
    endloop
  endfacet
  facet normal 0 1 0
    outer loop
      vertex 3.5 3.5 0.75
      vertex 0 3.5 0
      vertex 0 3.5 0.75
    endloop
  endfacet
  facet normal 0 1 -0
    outer loop
      vertex 92.5 3.5 0.75
      vertex 75.5 3.5 1.5
      vertex 92.5 3.5 1.5
    endloop
  endfacet
  facet normal 0 1 0
    outer loop
      vertex 75.5 3.5 1.5
      vertex 92.5 3.5 0.75
      vertex 75.5 3.5 0.75
    endloop
  endfacet
  facet normal 0 1 -0
    outer loop
      vertex 72 3.5 0.75
      vertex 24 3.5 1.5
      vertex 72 3.5 1.5
    endloop
  endfacet
  facet normal 0 1 0
    outer loop
      vertex 24 3.5 1.5
      vertex 72 3.5 0.75
      vertex 24 3.5 0.75
    endloop
  endfacet
  facet normal 0 1 -0
    outer loop
      vertex 20.5 3.5 0.75
      vertex 3.5 3.5 1.5
      vertex 20.5 3.5 1.5
    endloop
  endfacet
  facet normal 0 1 0
    outer loop
      vertex 3.5 3.5 1.5
      vertex 20.5 3.5 0.75
      vertex 3.5 3.5 0.75
    endloop
  endfacet
  facet normal 0 -1 0
    outer loop
      vertex 0 0 0
      vertex 3.5 0 0.75
      vertex 0 0 0.75
    endloop
  endfacet
  facet normal 0 -1 -0
    outer loop
      vertex 3.5 0 0.75
      vertex 0 0 0
      vertex 20.5 0 0.75
    endloop
  endfacet
  facet normal 0 -1 -0
    outer loop
      vertex 20.5 0 0.75
      vertex 0 0 0
      vertex 24 0 0.75
    endloop
  endfacet
  facet normal 0 -1 -0
    outer loop
      vertex 24 0 0.75
      vertex 0 0 0
      vertex 72 0 0.75
    endloop
  endfacet
  facet normal 0 -1 0
    outer loop
      vertex 96 0 0
      vertex 72 0 0.75
      vertex 0 0 0
    endloop
  endfacet
  facet normal 0 -1 0
    outer loop
      vertex 72 0 0.75
      vertex 96 0 0
      vertex 75.5 0 0.75
    endloop
  endfacet
  facet normal 0 -1 0
    outer loop
      vertex 75.5 0 0.75
      vertex 96 0 0
      vertex 92.5 0 0.75
    endloop
  endfacet
  facet normal 0 -1 0
    outer loop
      vertex 92.5 0 0.75
      vertex 96 0 0
      vertex 96 0 0.75
    endloop
  endfacet
  facet normal 0 -1 0
    outer loop
      vertex 3.5 0 0.75
      vertex 20.5 0 1.5
      vertex 3.5 0 1.5
    endloop
  endfacet
  facet normal 0 -1 -0
    outer loop
      vertex 20.5 0 1.5
      vertex 3.5 0 0.75
      vertex 20.5 0 0.75
    endloop
  endfacet
  facet normal 0 -1 0
    outer loop
      vertex 24 0 0.75
      vertex 72 0 1.5
      vertex 24 0 1.5
    endloop
  endfacet
  facet normal 0 -1 -0
    outer loop
      vertex 72 0 1.5
      vertex 24 0 0.75
      vertex 72 0 0.75
    endloop
  endfacet
  facet normal 0 -1 0
    outer loop
      vertex 75.5 0 0.75
      vertex 92.5 0 1.5
      vertex 75.5 0 1.5
    endloop
  endfacet
  facet normal 0 -1 -0
    outer loop
      vertex 92.5 0 1.5
      vertex 75.5 0 0.75
      vertex 92.5 0 0.75
    endloop
  endfacet
  facet normal -1 0 0
    outer loop
      vertex 3.5 0 0.75
      vertex 3.5 3.5 1.5
      vertex 3.5 3.5 0.75
    endloop
  endfacet
  facet normal -1 -0 0
    outer loop
      vertex 3.5 3.5 1.5
      vertex 3.5 0 0.75
      vertex 3.5 0 1.5
    endloop
  endfacet
  facet normal -0 0 1
    outer loop
      vertex 0 3.5 0.75
      vertex 3.5 0 0.75
      vertex 3.5 3.5 0.75
    endloop
  endfacet
  facet normal 0 0 1
    outer loop
      vertex 3.5 0 0.75
      vertex 0 3.5 0.75
      vertex 0 0 0.75
    endloop
  endfacet
  facet normal -0 0 1
    outer loop
      vertex 92.5 3.5 0.75
      vertex 96 0 0.75
      vertex 96 3.5 0.75
    endloop
  endfacet
  facet normal 0 0 1
    outer loop
      vertex 96 0 0.75
      vertex 92.5 3.5 0.75
      vertex 92.5 0 0.75
    endloop
  endfacet
  facet normal 1 -0 0
    outer loop
      vertex 92.5 0 1.5
      vertex 92.5 3.5 0.75
      vertex 92.5 3.5 1.5
    endloop
  endfacet
  facet normal 1 0 0
    outer loop
      vertex 92.5 3.5 0.75
      vertex 92.5 0 1.5
      vertex 92.5 0 0.75
    endloop
  endfacet
  facet normal -1 0 0
    outer loop
      vertex 24 0 0.75
      vertex 24 3.5 1.5
      vertex 24 3.5 0.75
    endloop
  endfacet
  facet normal -1 -0 0
    outer loop
      vertex 24 3.5 1.5
      vertex 24 0 0.75
      vertex 24 0 1.5
    endloop
  endfacet
  facet normal -0 0 1
    outer loop
      vertex 20.5 3.5 0.75
      vertex 24 0 0.75
      vertex 24 3.5 0.75
    endloop
  endfacet
  facet normal 0 0 1
    outer loop
      vertex 24 0 0.75
      vertex 20.5 3.5 0.75
      vertex 20.5 0 0.75
    endloop
  endfacet
  facet normal 1 -0 0
    outer loop
      vertex 20.5 0 1.5
      vertex 20.5 3.5 0.75
      vertex 20.5 3.5 1.5
    endloop
  endfacet
  facet normal 1 0 0
    outer loop
      vertex 20.5 3.5 0.75
      vertex 20.5 0 1.5
      vertex 20.5 0 0.75
    endloop
  endfacet
  facet normal -1 0 0
    outer loop
      vertex 75.5 0 0.75
      vertex 75.5 3.5 1.5
      vertex 75.5 3.5 0.75
    endloop
  endfacet
  facet normal -1 -0 0
    outer loop
      vertex 75.5 3.5 1.5
      vertex 75.5 0 0.75
      vertex 75.5 0 1.5
    endloop
  endfacet
  facet normal -0 0 1
    outer loop
      vertex 72 3.5 0.75
      vertex 75.5 0 0.75
      vertex 75.5 3.5 0.75
    endloop
  endfacet
  facet normal 0 0 1
    outer loop
      vertex 75.5 0 0.75
      vertex 72 3.5 0.75
      vertex 72 0 0.75
    endloop
  endfacet
  facet normal 1 -0 0
    outer loop
      vertex 72 0 1.5
      vertex 72 3.5 0.75
      vertex 72 3.5 1.5
    endloop
  endfacet
  facet normal 1 0 0
    outer loop
      vertex 72 3.5 0.75
      vertex 72 0 1.5
      vertex 72 0 0.75
    endloop
  endfacet
endsolid OpenSCAD_Model
