solid OpenSCAD_Model
  facet normal 1 -0 0
    outer loop
      vertex 1.5 24 3.5
      vertex 1.5 32.5 0
      vertex 1.5 32.5 3.5
    endloop
  endfacet
  facet normal 1 0 0
    outer loop
      vertex 1.5 32.5 0
      vertex 1.5 24 3.5
      vertex 1.5 24 0
    endloop
  endfacet
  facet normal 1 -0 0
    outer loop
      vertex 1.5 3.5 3.5
      vertex 1.5 20.5 0
      vertex 1.5 20.5 3.5
    endloop
  endfacet
  facet normal 1 0 0
    outer loop
      vertex 1.5 20.5 0
      vertex 1.5 3.5 3.5
      vertex 1.5 3.5 0
    endloop
  endfacet
  facet normal -0 0 1
    outer loop
      vertex 0 36 3.5
      vertex 0.75 32.5 3.5
      vertex 0.75 36 3.5
    endloop
  endfacet
  facet normal 0 0 1
    outer loop
      vertex 0.75 32.5 3.5
      vertex 0 36 3.5
      vertex 0.75 24 3.5
    endloop
  endfacet
  facet normal 0 0 1
    outer loop
      vertex 0.75 24 3.5
      vertex 0 36 3.5
      vertex 0.75 20.5 3.5
    endloop
  endfacet
  facet normal 0 0 1
    outer loop
      vertex 0 0 3.5
      vertex 0.75 20.5 3.5
      vertex 0 36 3.5
    endloop
  endfacet
  facet normal 0 0 1
    outer loop
      vertex 0.75 20.5 3.5
      vertex 0 0 3.5
      vertex 0.75 3.5 3.5
    endloop
  endfacet
  facet normal 0 0 1
    outer loop
      vertex 0.75 3.5 3.5
      vertex 0 0 3.5
      vertex 0.75 0 3.5
    endloop
  endfacet
  facet normal -0 0 1
    outer loop
      vertex 0.75 32.5 3.5
      vertex 1.5 24 3.5
      vertex 1.5 32.5 3.5
    endloop
  endfacet
  facet normal 0 0 1
    outer loop
      vertex 1.5 24 3.5
      vertex 0.75 32.5 3.5
      vertex 0.75 24 3.5
    endloop
  endfacet
  facet normal -0 0 1
    outer loop
      vertex 0.75 20.5 3.5
      vertex 1.5 3.5 3.5
      vertex 1.5 20.5 3.5
    endloop
  endfacet
  facet normal 0 0 1
    outer loop
      vertex 1.5 3.5 3.5
      vertex 0.75 20.5 3.5
      vertex 0.75 3.5 3.5
    endloop
  endfacet
  facet normal 0 0 -1
    outer loop
      vertex 0 0.75 0
      vertex 0.75 3.5 0
      vertex 0.75 0.75 0
    endloop
  endfacet
  facet normal -0 0 -1
    outer loop
      vertex 0.75 3.5 0
      vertex 0 0.75 0
      vertex 0.75 20.5 0
    endloop
  endfacet
  facet normal 0 0 -1
    outer loop
      vertex 0 35.25 0
      vertex 0.75 20.5 0
      vertex 0 0.75 0
    endloop
  endfacet
  facet normal 0 0 -1
    outer loop
      vertex 0.75 20.5 0
      vertex 0 35.25 0
      vertex 0.75 24 0
    endloop
  endfacet
  facet normal 0 0 -1
    outer loop
      vertex 0.75 24 0
      vertex 0 35.25 0
      vertex 0.75 32.5 0
    endloop
  endfacet
  facet normal 0 0 -1
    outer loop
      vertex 0.75 32.5 0
      vertex 0 35.25 0
      vertex 0.75 35.25 0
    endloop
  endfacet
  facet normal 0 0 -1
    outer loop
      vertex 0.75 3.5 0
      vertex 1.5 20.5 0
      vertex 1.5 3.5 0
    endloop
  endfacet
  facet normal -0 0 -1
    outer loop
      vertex 1.5 20.5 0
      vertex 0.75 3.5 0
      vertex 0.75 20.5 0
    endloop
  endfacet
  facet normal 0 0 -1
    outer loop
      vertex 0.75 24 0
      vertex 1.5 32.5 0
      vertex 1.5 24 0
    endloop
  endfacet
  facet normal -0 0 -1
    outer loop
      vertex 1.5 32.5 0
      vertex 0.75 24 0
      vertex 0.75 32.5 0
    endloop
  endfacet
  facet normal -1 0 0
    outer loop
      vertex 0 35.25 0
      vertex 0 0.75 0
      vertex 0 35.25 1.75
    endloop
  endfacet
  facet normal -1 0 0
    outer loop
      vertex 0 35.25 1.75
      vertex 0 36 3.5
      vertex 0 36 1.75
    endloop
  endfacet
  facet normal -1 0 0
    outer loop
      vertex 0 0.75 1.75
      vertex 0 35.25 1.75
      vertex 0 0.75 0
    endloop
  endfacet
  facet normal -1 0 0
    outer loop
      vertex 0 35.25 1.75
      vertex 0 0.75 1.75
      vertex 0 36 3.5
    endloop
  endfacet
  facet normal -1 0 0
    outer loop
      vertex 0 0 3.5
      vertex 0 0.75 1.75
      vertex 0 0 1.75
    endloop
  endfacet
  facet normal -1 0 0
    outer loop
      vertex 0 0.75 1.75
      vertex 0 0 3.5
      vertex 0 36 3.5
    endloop
  endfacet
  facet normal 0 1 -0
    outer loop
      vertex 0.75 36 1.75
      vertex 0 36 3.5
      vertex 0.75 36 3.5
    endloop
  endfacet
  facet normal 0 1 0
    outer loop
      vertex 0 36 3.5
      vertex 0.75 36 1.75
      vertex 0 36 1.75
    endloop
  endfacet
  facet normal 0 -1 0
    outer loop
      vertex 0 0 1.75
      vertex 0.75 0 3.5
      vertex 0 0 3.5
    endloop
  endfacet
  facet normal 0 -1 -0
    outer loop
      vertex 0.75 0 3.5
      vertex 0 0 1.75
      vertex 0.75 0 1.75
    endloop
  endfacet
  facet normal 1 0 0
    outer loop
      vertex 0.75 36 3.5
      vertex 0.75 35.25 1.75
      vertex 0.75 36 1.75
    endloop
  endfacet
  facet normal 1 -0 0
    outer loop
      vertex 0.75 32.5 3.5
      vertex 0.75 35.25 1.75
      vertex 0.75 36 3.5
    endloop
  endfacet
  facet normal 1 0 0
    outer loop
      vertex 0.75 32.5 0
      vertex 0.75 35.25 1.75
      vertex 0.75 32.5 3.5
    endloop
  endfacet
  facet normal 1 0 0
    outer loop
      vertex 0.75 35.25 1.75
      vertex 0.75 32.5 0
      vertex 0.75 35.25 0
    endloop
  endfacet
  facet normal 0 1 -0
    outer loop
      vertex 1.5 32.5 0
      vertex 0.75 32.5 3.5
      vertex 1.5 32.5 3.5
    endloop
  endfacet
  facet normal 0 1 0
    outer loop
      vertex 0.75 32.5 3.5
      vertex 1.5 32.5 0
      vertex 0.75 32.5 0
    endloop
  endfacet
  facet normal 1 0 0
    outer loop
      vertex 0.75 3.5 3.5
      vertex 0.75 0.75 1.75
      vertex 0.75 3.5 0
    endloop
  endfacet
  facet normal 1 -0 0
    outer loop
      vertex 0.75 0 3.5
      vertex 0.75 0.75 1.75
      vertex 0.75 3.5 3.5
    endloop
  endfacet
  facet normal 1 0 0
    outer loop
      vertex 0.75 0.75 1.75
      vertex 0.75 0 3.5
      vertex 0.75 0 1.75
    endloop
  endfacet
  facet normal 1 0 0
    outer loop
      vertex 0.75 3.5 0
      vertex 0.75 0.75 1.75
      vertex 0.75 0.75 0
    endloop
  endfacet
  facet normal 0 0 -1
    outer loop
      vertex 0 0 1.75
      vertex 0.75 0.75 1.75
      vertex 0.75 0 1.75
    endloop
  endfacet
  facet normal -0 0 -1
    outer loop
      vertex 0.75 0.75 1.75
      vertex 0 0 1.75
      vertex 0 0.75 1.75
    endloop
  endfacet
  facet normal 0 -1 0
    outer loop
      vertex 0 0.75 0
      vertex 0.75 0.75 1.75
      vertex 0 0.75 1.75
    endloop
  endfacet
  facet normal 0 -1 -0
    outer loop
      vertex 0.75 0.75 1.75
      vertex 0 0.75 0
      vertex 0.75 0.75 0
    endloop
  endfacet
  facet normal 0 -1 0
    outer loop
      vertex 0.75 3.5 0
      vertex 1.5 3.5 3.5
      vertex 0.75 3.5 3.5
    endloop
  endfacet
  facet normal 0 -1 -0
    outer loop
      vertex 1.5 3.5 3.5
      vertex 0.75 3.5 0
      vertex 1.5 3.5 0
    endloop
  endfacet
  facet normal 0 0 -1
    outer loop
      vertex 0 35.25 1.75
      vertex 0.75 36 1.75
      vertex 0.75 35.25 1.75
    endloop
  endfacet
  facet normal -0 0 -1
    outer loop
      vertex 0.75 36 1.75
      vertex 0 35.25 1.75
      vertex 0 36 1.75
    endloop
  endfacet
  facet normal 0 1 -0
    outer loop
      vertex 0.75 35.25 0
      vertex 0 35.25 1.75
      vertex 0.75 35.25 1.75
    endloop
  endfacet
  facet normal 0 1 0
    outer loop
      vertex 0 35.25 1.75
      vertex 0.75 35.25 0
      vertex 0 35.25 0
    endloop
  endfacet
  facet normal 1 -0 0
    outer loop
      vertex 0.75 20.5 3.5
      vertex 0.75 24 0
      vertex 0.75 24 3.5
    endloop
  endfacet
  facet normal 1 0 0
    outer loop
      vertex 0.75 24 0
      vertex 0.75 20.5 3.5
      vertex 0.75 20.5 0
    endloop
  endfacet
  facet normal 0 -1 0
    outer loop
      vertex 0.75 24 0
      vertex 1.5 24 3.5
      vertex 0.75 24 3.5
    endloop
  endfacet
  facet normal 0 -1 -0
    outer loop
      vertex 1.5 24 3.5
      vertex 0.75 24 0
      vertex 1.5 24 0
    endloop
  endfacet
  facet normal 0 1 -0
    outer loop
      vertex 1.5 20.5 0
      vertex 0.75 20.5 3.5
      vertex 1.5 20.5 3.5
    endloop
  endfacet
  facet normal 0 1 0
    outer loop
      vertex 0.75 20.5 3.5
      vertex 1.5 20.5 0
      vertex 0.75 20.5 0
    endloop
  endfacet
endsolid OpenSCAD_Model
