solid OpenSCAD_Model
  facet normal 1 -0 0
    outer loop
      vertex 24 3.5 6.5
      vertex 24 20.5 6
      vertex 24 20.5 6.5
    endloop
  endfacet
  facet normal 1 0 0
    outer loop
      vertex 24 20.5 6
      vertex 24 3.5 6.5
      vertex 24 3.5 6
    endloop
  endfacet
  facet normal 1 -0 0
    outer loop
      vertex 24 24 6.5
      vertex 24 32.5 6
      vertex 24 32.5 6.5
    endloop
  endfacet
  facet normal 1 0 0
    outer loop
      vertex 24 32.5 6
      vertex 24 24 6.5
      vertex 24 24 6
    endloop
  endfacet
  facet normal -0 0 1
    outer loop
      vertex 0 20.5 6.5
      vertex 1.5 3.5 6.5
      vertex 1.5 20.5 6.5
    endloop
  endfacet
  facet normal 0 0 1
    outer loop
      vertex 1.5 3.5 6.5
      vertex 0 20.5 6.5
      vertex 0 3.5 6.5
    endloop
  endfacet
  facet normal -0 0 1
    outer loop
      vertex 0 32.5 6.5
      vertex 1.5 24 6.5
      vertex 1.5 32.5 6.5
    endloop
  endfacet
  facet normal 0 0 1
    outer loop
      vertex 1.5 24 6.5
      vertex 0 32.5 6.5
      vertex 0 24 6.5
    endloop
  endfacet
  facet normal 0 0 1
    outer loop
      vertex 1.5 32.5 6.5
      vertex 22.5 32.5 6.5
      vertex 22.5 36 6.5
    endloop
  endfacet
  facet normal 0 0 1
    outer loop
      vertex 22.5 32.5 6.5
      vertex 1.5 32.5 6.5
      vertex 22.5 24 6.5
    endloop
  endfacet
  facet normal 0 0 1
    outer loop
      vertex 22.5 24 6.5
      vertex 1.5 24 6.5
      vertex 22.5 20.5 6.5
    endloop
  endfacet
  facet normal 0 0 1
    outer loop
      vertex 22.5 20.5 6.5
      vertex 1.5 20.5 6.5
      vertex 22.5 3.5 6.5
    endloop
  endfacet
  facet normal 0 0 1
    outer loop
      vertex 1.5 32.5 6.5
      vertex 22.5 36 6.5
      vertex 1.5 36 6.5
    endloop
  endfacet
  facet normal 0 0 1
    outer loop
      vertex 22.5 24 6.5
      vertex 1.5 32.5 6.5
      vertex 1.5 24 6.5
    endloop
  endfacet
  facet normal 0 0 1
    outer loop
      vertex 22.5 20.5 6.5
      vertex 1.5 24 6.5
      vertex 1.5 20.5 6.5
    endloop
  endfacet
  facet normal 0 0 1
    outer loop
      vertex 1.5 3.5 6.5
      vertex 22.5 3.5 6.5
      vertex 1.5 20.5 6.5
    endloop
  endfacet
  facet normal 0 0 1
    outer loop
      vertex 22.5 3.5 6.5
      vertex 1.5 3.5 6.5
      vertex 22.5 0 6.5
    endloop
  endfacet
  facet normal 0 0 1
    outer loop
      vertex 22.5 0 6.5
      vertex 1.5 3.5 6.5
      vertex 1.5 0 6.5
    endloop
  endfacet
  facet normal -0 0 1
    outer loop
      vertex 22.5 32.5 6.5
      vertex 24 24 6.5
      vertex 24 32.5 6.5
    endloop
  endfacet
  facet normal 0 0 1
    outer loop
      vertex 24 24 6.5
      vertex 22.5 32.5 6.5
      vertex 22.5 24 6.5
    endloop
  endfacet
  facet normal -0 0 1
    outer loop
      vertex 22.5 20.5 6.5
      vertex 24 3.5 6.5
      vertex 24 20.5 6.5
    endloop
  endfacet
  facet normal 0 0 1
    outer loop
      vertex 24 3.5 6.5
      vertex 22.5 20.5 6.5
      vertex 22.5 3.5 6.5
    endloop
  endfacet
  facet normal 0 0 -1
    outer loop
      vertex 0 24 6
      vertex 1.5 32.5 6
      vertex 1.5 24 6
    endloop
  endfacet
  facet normal -0 0 -1
    outer loop
      vertex 1.5 32.5 6
      vertex 0 24 6
      vertex 0 32.5 6
    endloop
  endfacet
  facet normal 0 0 -1
    outer loop
      vertex 0 3.5 6
      vertex 1.5 20.5 6
      vertex 1.5 3.5 6
    endloop
  endfacet
  facet normal -0 0 -1
    outer loop
      vertex 1.5 20.5 6
      vertex 0 3.5 6
      vertex 0 20.5 6
    endloop
  endfacet
  facet normal 0 0 -1
    outer loop
      vertex 1.5 3.5 6
      vertex 22.5 3.5 6
      vertex 22.5 0 6
    endloop
  endfacet
  facet normal 0 0 -1
    outer loop
      vertex 22.5 3.5 6
      vertex 1.5 3.5 6
      vertex 22.5 20.5 6
    endloop
  endfacet
  facet normal 0 0 -1
    outer loop
      vertex 22.5 20.5 6
      vertex 1.5 20.5 6
      vertex 22.5 24 6
    endloop
  endfacet
  facet normal 0 0 -1
    outer loop
      vertex 1.5 24 6
      vertex 22.5 24 6
      vertex 1.5 20.5 6
    endloop
  endfacet
  facet normal 0 0 -1
    outer loop
      vertex 1.5 3.5 6
      vertex 22.5 0 6
      vertex 1.5 0 6
    endloop
  endfacet
  facet normal -0 0 -1
    outer loop
      vertex 22.5 20.5 6
      vertex 1.5 3.5 6
      vertex 1.5 20.5 6
    endloop
  endfacet
  facet normal 0 0 -1
    outer loop
      vertex 22.5 24 6
      vertex 1.5 24 6
      vertex 22.5 32.5 6
    endloop
  endfacet
  facet normal 0 0 -1
    outer loop
      vertex 1.5 32.5 6
      vertex 22.5 32.5 6
      vertex 1.5 24 6
    endloop
  endfacet
  facet normal 0 0 -1
    outer loop
      vertex 22.5 32.5 6
      vertex 1.5 32.5 6
      vertex 22.5 36 6
    endloop
  endfacet
  facet normal -0 0 -1
    outer loop
      vertex 22.5 36 6
      vertex 1.5 32.5 6
      vertex 1.5 36 6
    endloop
  endfacet
  facet normal 0 0 -1
    outer loop
      vertex 22.5 3.5 6
      vertex 24 20.5 6
      vertex 24 3.5 6
    endloop
  endfacet
  facet normal -0 0 -1
    outer loop
      vertex 24 20.5 6
      vertex 22.5 3.5 6
      vertex 22.5 20.5 6
    endloop
  endfacet
  facet normal 0 0 -1
    outer loop
      vertex 22.5 24 6
      vertex 24 32.5 6
      vertex 24 24 6
    endloop
  endfacet
  facet normal -0 0 -1
    outer loop
      vertex 24 32.5 6
      vertex 22.5 24 6
      vertex 22.5 32.5 6
    endloop
  endfacet
  facet normal -1 0 0
    outer loop
      vertex 0 3.5 6
      vertex 0 20.5 6.5
      vertex 0 20.5 6
    endloop
  endfacet
  facet normal -1 -0 0
    outer loop
      vertex 0 20.5 6.5
      vertex 0 3.5 6
      vertex 0 3.5 6.5
    endloop
  endfacet
  facet normal -1 0 0
    outer loop
      vertex 0 24 6
      vertex 0 32.5 6.5
      vertex 0 32.5 6
    endloop
  endfacet
  facet normal -1 -0 0
    outer loop
      vertex 0 32.5 6.5
      vertex 0 24 6
      vertex 0 24 6.5
    endloop
  endfacet
  facet normal 0 1 -0
    outer loop
      vertex 22.5 36 6
      vertex 1.5 36 6.5
      vertex 22.5 36 6.5
    endloop
  endfacet
  facet normal 0 1 0
    outer loop
      vertex 1.5 36 6.5
      vertex 22.5 36 6
      vertex 1.5 36 6
    endloop
  endfacet
  facet normal 0 -1 0
    outer loop
      vertex 1.5 0 6
      vertex 22.5 0 6.5
      vertex 1.5 0 6.5
    endloop
  endfacet
  facet normal 0 -1 -0
    outer loop
      vertex 22.5 0 6.5
      vertex 1.5 0 6
      vertex 22.5 0 6
    endloop
  endfacet
  facet normal -1 0 0
    outer loop
      vertex 1.5 0 6
      vertex 1.5 3.5 6.5
      vertex 1.5 3.5 6
    endloop
  endfacet
  facet normal -1 -0 0
    outer loop
      vertex 1.5 3.5 6.5
      vertex 1.5 0 6
      vertex 1.5 0 6.5
    endloop
  endfacet
  facet normal 0 -1 0
    outer loop
      vertex 0 3.5 6
      vertex 1.5 3.5 6.5
      vertex 0 3.5 6.5
    endloop
  endfacet
  facet normal 0 -1 -0
    outer loop
      vertex 1.5 3.5 6.5
      vertex 0 3.5 6
      vertex 1.5 3.5 6
    endloop
  endfacet
  facet normal 1 -0 0
    outer loop
      vertex 22.5 0 6.5
      vertex 22.5 3.5 6
      vertex 22.5 3.5 6.5
    endloop
  endfacet
  facet normal 1 0 0
    outer loop
      vertex 22.5 3.5 6
      vertex 22.5 0 6.5
      vertex 22.5 0 6
    endloop
  endfacet
  facet normal 0 -1 0
    outer loop
      vertex 22.5 3.5 6
      vertex 24 3.5 6.5
      vertex 22.5 3.5 6.5
    endloop
  endfacet
  facet normal 0 -1 -0
    outer loop
      vertex 24 3.5 6.5
      vertex 22.5 3.5 6
      vertex 24 3.5 6
    endloop
  endfacet
  facet normal -1 0 0
    outer loop
      vertex 1.5 32.5 6
      vertex 1.5 36 6.5
      vertex 1.5 36 6
    endloop
  endfacet
  facet normal -1 -0 0
    outer loop
      vertex 1.5 36 6.5
      vertex 1.5 32.5 6
      vertex 1.5 32.5 6.5
    endloop
  endfacet
  facet normal 0 1 -0
    outer loop
      vertex 1.5 32.5 6
      vertex 0 32.5 6.5
      vertex 1.5 32.5 6.5
    endloop
  endfacet
  facet normal 0 1 0
    outer loop
      vertex 0 32.5 6.5
      vertex 1.5 32.5 6
      vertex 0 32.5 6
    endloop
  endfacet
  facet normal 1 -0 0
    outer loop
      vertex 22.5 32.5 6.5
      vertex 22.5 36 6
      vertex 22.5 36 6.5
    endloop
  endfacet
  facet normal 1 0 0
    outer loop
      vertex 22.5 36 6
      vertex 22.5 32.5 6.5
      vertex 22.5 32.5 6
    endloop
  endfacet
  facet normal 0 1 -0
    outer loop
      vertex 24 32.5 6
      vertex 22.5 32.5 6.5
      vertex 24 32.5 6.5
    endloop
  endfacet
  facet normal 0 1 0
    outer loop
      vertex 22.5 32.5 6.5
      vertex 24 32.5 6
      vertex 22.5 32.5 6
    endloop
  endfacet
  facet normal -1 0 0
    outer loop
      vertex 1.5 20.5 6
      vertex 1.5 24 6.5
      vertex 1.5 24 6
    endloop
  endfacet
  facet normal -1 -0 0
    outer loop
      vertex 1.5 24 6.5
      vertex 1.5 20.5 6
      vertex 1.5 20.5 6.5
    endloop
  endfacet
  facet normal 0 -1 0
    outer loop
      vertex 0 24 6
      vertex 1.5 24 6.5
      vertex 0 24 6.5
    endloop
  endfacet
  facet normal 0 -1 -0
    outer loop
      vertex 1.5 24 6.5
      vertex 0 24 6
      vertex 1.5 24 6
    endloop
  endfacet
  facet normal 0 1 -0
    outer loop
      vertex 1.5 20.5 6
      vertex 0 20.5 6.5
      vertex 1.5 20.5 6.5
    endloop
  endfacet
  facet normal 0 1 0
    outer loop
      vertex 0 20.5 6.5
      vertex 1.5 20.5 6
      vertex 0 20.5 6
    endloop
  endfacet
  facet normal 1 -0 0
    outer loop
      vertex 22.5 20.5 6.5
      vertex 22.5 24 6
      vertex 22.5 24 6.5
    endloop
  endfacet
  facet normal 1 0 0
    outer loop
      vertex 22.5 24 6
      vertex 22.5 20.5 6.5
      vertex 22.5 20.5 6
    endloop
  endfacet
  facet normal 0 -1 0
    outer loop
      vertex 22.5 24 6
      vertex 24 24 6.5
      vertex 22.5 24 6.5
    endloop
  endfacet
  facet normal 0 -1 -0
    outer loop
      vertex 24 24 6.5
      vertex 22.5 24 6
      vertex 24 24 6
    endloop
  endfacet
  facet normal 0 1 -0
    outer loop
      vertex 24 20.5 6
      vertex 22.5 20.5 6.5
      vertex 24 20.5 6.5
    endloop
  endfacet
  facet normal 0 1 0
    outer loop
      vertex 22.5 20.5 6.5
      vertex 24 20.5 6
      vertex 22.5 20.5 6
    endloop
  endfacet
endsolid OpenSCAD_Model
