solid OpenSCAD_Model
  facet normal 1 0 0
    outer loop
      vertex 3.5 36 1.5
      vertex 3.5 32.5 0.75
      vertex 3.5 36 0.75
    endloop
  endfacet
  facet normal 1 0 0
    outer loop
      vertex 3.5 32.5 0.75
      vertex 3.5 24 0.75
      vertex 3.5 32.5 0
    endloop
  endfacet
  facet normal 1 0 0
    outer loop
      vertex 3.5 36 1.5
      vertex 3.5 24 0.75
      vertex 3.5 32.5 0.75
    endloop
  endfacet
  facet normal 1 -0 0
    outer loop
      vertex 3.5 20.5 1.5
      vertex 3.5 24 0.75
      vertex 3.5 36 1.5
    endloop
  endfacet
  facet normal 1 0 0
    outer loop
      vertex 3.5 24 0.75
      vertex 3.5 20.5 1.5
      vertex 3.5 20.5 0.75
    endloop
  endfacet
  facet normal 1 0 0
    outer loop
      vertex 3.5 32.5 0
      vertex 3.5 24 0.75
      vertex 3.5 24 0
    endloop
  endfacet
  facet normal -0 0 1
    outer loop
      vertex 0 36 1.5
      vertex 3.5 20.5 1.5
      vertex 3.5 36 1.5
    endloop
  endfacet
  facet normal 0 0 1
    outer loop
      vertex 3.5 20.5 1.5
      vertex 0 36 1.5
      vertex 0 20.5 1.5
    endloop
  endfacet
  facet normal 0 0 -1
    outer loop
      vertex 3.5 24 0
      vertex 0.75 32.5 0
      vertex 3.5 32.5 0
    endloop
  endfacet
  facet normal 0 0 -1
    outer loop
      vertex 0 24 0
      vertex 0.75 32.5 0
      vertex 3.5 24 0
    endloop
  endfacet
  facet normal 0 0 -1
    outer loop
      vertex 0 36 0
      vertex 0.75 32.5 0
      vertex 0 24 0
    endloop
  endfacet
  facet normal 0 0 -1
    outer loop
      vertex 0.75 32.5 0
      vertex 0 36 0
      vertex 0.75 36 0
    endloop
  endfacet
  facet normal -1 0 0
    outer loop
      vertex 0 24 0.75
      vertex 0 36 0
      vertex 0 24 0
    endloop
  endfacet
  facet normal -1 0 0
    outer loop
      vertex 0 36 0
      vertex 0 24 0.75
      vertex 0 36 1.5
    endloop
  endfacet
  facet normal -1 0 0
    outer loop
      vertex 0 20.5 1.5
      vertex 0 24 0.75
      vertex 0 20.5 0.75
    endloop
  endfacet
  facet normal -1 0 0
    outer loop
      vertex 0 24 0.75
      vertex 0 20.5 1.5
      vertex 0 36 1.5
    endloop
  endfacet
  facet normal 0 1 0
    outer loop
      vertex 0.75 36 0.75
      vertex 3.5 36 1.5
      vertex 3.5 36 0.75
    endloop
  endfacet
  facet normal 0 1 0
    outer loop
      vertex 3.5 36 1.5
      vertex 0.75 36 0.75
      vertex 0 36 1.5
    endloop
  endfacet
  facet normal 0 1 0
    outer loop
      vertex 0 36 0
      vertex 0.75 36 0.75
      vertex 0.75 36 0
    endloop
  endfacet
  facet normal 0 1 0
    outer loop
      vertex 0.75 36 0.75
      vertex 0 36 0
      vertex 0 36 1.5
    endloop
  endfacet
  facet normal 0 -1 0
    outer loop
      vertex 0 20.5 0.75
      vertex 3.5 20.5 1.5
      vertex 0 20.5 1.5
    endloop
  endfacet
  facet normal 0 -1 -0
    outer loop
      vertex 3.5 20.5 1.5
      vertex 0 20.5 0.75
      vertex 3.5 20.5 0.75
    endloop
  endfacet
  facet normal 0 0 -1
    outer loop
      vertex 0.75 32.5 0.75
      vertex 3.5 36 0.75
      vertex 3.5 32.5 0.75
    endloop
  endfacet
  facet normal -0 0 -1
    outer loop
      vertex 3.5 36 0.75
      vertex 0.75 32.5 0.75
      vertex 0.75 36 0.75
    endloop
  endfacet
  facet normal 1 -0 0
    outer loop
      vertex 0.75 32.5 0.75
      vertex 0.75 36 0
      vertex 0.75 36 0.75
    endloop
  endfacet
  facet normal 1 0 0
    outer loop
      vertex 0.75 36 0
      vertex 0.75 32.5 0.75
      vertex 0.75 32.5 0
    endloop
  endfacet
  facet normal 0 1 -0
    outer loop
      vertex 3.5 32.5 0
      vertex 0.75 32.5 0.75
      vertex 3.5 32.5 0.75
    endloop
  endfacet
  facet normal 0 1 0
    outer loop
      vertex 0.75 32.5 0.75
      vertex 3.5 32.5 0
      vertex 0.75 32.5 0
    endloop
  endfacet
  facet normal 0 0 -1
    outer loop
      vertex 0 20.5 0.75
      vertex 3.5 24 0.75
      vertex 3.5 20.5 0.75
    endloop
  endfacet
  facet normal -0 0 -1
    outer loop
      vertex 3.5 24 0.75
      vertex 0 20.5 0.75
      vertex 0 24 0.75
    endloop
  endfacet
  facet normal 0 -1 0
    outer loop
      vertex 0 24 0
      vertex 3.5 24 0.75
      vertex 0 24 0.75
    endloop
  endfacet
  facet normal 0 -1 -0
    outer loop
      vertex 3.5 24 0.75
      vertex 0 24 0
      vertex 3.5 24 0
    endloop
  endfacet
endsolid OpenSCAD_Model
